<?xml version="1.0"?>

<svg width="206" height="214" xmlns="http://www.w3.org/2000/svg" xmlns:svg="http://www.w3.org/2000/svg">
 <g class="layer">
  <title>Layer 1</title>
  <g transform="rotate(0.11441522091627121 102.93742370605968,107.05988311767219) " id="svg_3">
   <path id="svg_1" fill="#4db6ac" d="m114.05401,188.207c-48.17188,0 -87.22635,-36.33257 -87.22635,-81.14711c0,-44.81454 39.04884,-81.14712 87.22635,-81.14712c27.84215,0 52.62077,12.14928 68.58608,31.04641l23.02159,-17.06871c-5.85113,-6.82644 -12.58078,-12.97705 -20.02563,-18.29989c-4.43762,6.0825 -13.23966,8.03142 -20.18894,4.296c-6.95491,-3.73542 -9.5454,-11.81922 -6.08202,-18.4361c-9.17372,-3.53634 -18.93311,-6.00915 -29.11487,-7.24556c-0.56315,7.33462 -7.14638,13.12373 -15.1769,13.12373c-8.03052,0 -14.61375,-5.78911 -15.1769,-13.12373c-10.18176,1.23641 -19.94678,3.70922 -29.11487,7.24556c3.46337,6.61688 0.87288,14.70068 -6.08202,18.4361c-6.95491,3.73542 -15.75694,1.7865 -20.19457,-4.296c-7.9911,5.72101 -15.15438,12.38504 -21.30398,19.81921c6.53818,4.12834 8.63309,12.31693 4.61783,18.78711c-4.01526,6.47542 -12.69904,8.87489 -19.81726,5.6529c-3.80126,8.53436 -6.4537,17.61881 -7.78837,27.08571c7.8841,0.52914 14.11255,6.65355 14.11255,14.12439c0,7.47084 -6.22844,13.59001 -14.11255,14.11391c1.32903,9.47214 3.9871,18.55659 7.78837,27.09095c7.11259,-3.22199 15.802,-0.81729 19.81726,5.65814c4.01526,6.46494 1.92034,14.65353 -4.61783,18.78187c6.1496,7.43416 13.31287,14.10343 21.30398,19.82443c4.43762,-6.08774 13.23966,-8.03665 20.19457,-4.30123c6.96054,3.73542 9.53977,11.81922 6.08202,18.44133c9.16809,3.53634 18.93311,6.00391 29.11487,7.24556c0.56315,-7.33986 7.14638,-13.12897 15.1769,-13.12897c8.03052,0 14.60812,5.78911 15.1769,13.12897c10.18176,-1.24165 19.94115,-3.70922 29.11487,-7.24556c-3.46337,-6.62212 -0.87851,-14.70592 6.08202,-18.44133c6.94928,-3.73542 15.75131,-1.7865 20.18894,4.30123c7.44485,-5.32808 14.17449,-11.47868 20.02563,-18.30512l-23.02159,-17.06871c-15.96531,18.89713 -40.74393,31.05164 -68.58608,31.05164z"/>
   <path id="svg_2" fill="#4db6ac" d="m99.89078,110.28437l12.97498,-35.37907l0.29847,0l12.52446,35.37907l-25.79792,0zm67.12752,23.45507c-3.34261,1.63981 -8.60494,0.13621 -8.60494,0.13621l-29.03603,-75.29513l-29.48655,0l-29.18245,74.19494l-10.32255,0.68631l0.88415,14.2606l37.29745,0l1.03057,-12.33788l-9.28635,-0.68631l4.7192,-11.38438l35.3771,0l5.15846,12.20691l-8.10936,0.82253l0,11.37914c0,0 35.96841,0.29862 43.10916,0.56057l-3.54785,-14.54351z"/>
  </g>
 </g>
</svg>