<?xml version="1.0" encoding="UTF-8"?>
<!DOCTYPE svg PUBLIC "-//W3C//DTD SVG 1.1//EN" "http://www.w3.org/Graphics/SVG/1.1/DTD/svg11.dtd">
<!-- Creator: CorelDRAW 2019 (64-Bit) -->
<svg xmlns="http://www.w3.org/2000/svg" xml:space="preserve" width="1500px" height="1300px" version="1.1" style="shape-rendering:geometricPrecision; text-rendering:geometricPrecision; image-rendering:optimizeQuality; fill-rule:evenodd; clip-rule:evenodd"
viewBox="0 0 1500 1300"
 xmlns:xlink="http://www.w3.org/1999/xlink">
 <defs>
  <style type="text/css">
   <![CDATA[
    .str0 {stroke:white;stroke-width:2;stroke-miterlimit:22.9256}
    .fil1 {fill:#A3A3A3}
    .fil0 {fill:#CCCCCC}
   ]]>
  </style>
 </defs>
 <g id="Слой_x0020_1">
  <metadata id="CorelCorpID_0Corel-Layer"/>
  <path class="fil0 str0" d="M119.56 861.48c-20.52,-0.82 -2.61,-5.86 -16.95,6.07 -4.49,3.73 -9.96,-17.06 -9.96,-25.65 0,-13.93 -12.93,-4.84 -1.76,-20.51 3.05,-4.28 -16.24,-18.76 -14.58,-5.27 1.56,12.65 -9.15,17.12 -8.66,4.69 0.27,-6.8 0.29,-21.59 -2.92,-27.34 -0.96,-1.71 -23.71,-17.83 -4.83,-20.25 4.95,-0.63 -6,-9.36 3.84,-4.89 2.17,0.98 24.22,-16.53 24.22,-17.05 0,-28.81 -3.94,-13.94 -8.59,-32.03 -7.75,-1.61 8.57,-2.77 -5.27,5.67 -0.18,0.1 -22.53,-1.3 -12.7,-8.22 11.27,-7.93 6.04,-16.95 5.66,-18.01 -2.03,-5.76 20.3,-6.15 -12.56,-13.95 -4.17,-12.05 12.57,-3.93 11.59,-28.77 -0.2,-5 3.34,3.14 -2.15,-10.16 -1.59,-3.88 7.14,-6.8 -1.76,-13.86 -0.27,-0.22 -0.51,-10.36 12.5,-10.36 24.24,0 -1.94,-11.6 16.54,-8.53 13.53,2.26 -12.57,-5.69 9.24,-4.75 0.38,0.02 24.55,-15.13 16.28,-0.78 0.11,0.28 12.72,2.34 14.19,2.34 -4.2,0.36 0.05,-4.75 -5.33,-13.21 -3.96,-6.23 18.61,-2.16 17.83,-6.25l-0.07 -0.36c0.21,0.13 0.42,0.26 0.6,0.39 0.2,0.14 20.42,3.14 14.84,-4.69 -7.55,-10.62 9.57,3.56 15.43,3.32 9.63,-0.38 -7.73,6.39 8.59,7.75 2.86,0.24 1.55,13.06 14.13,20.11 13.74,7.7 -8.93,18.8 5.4,18.24 19.94,-0.79 20.59,26.38 27.21,24.08 1.78,-7.67 21.61,-10.15 21.23,2.41 -0.28,9.54 22.34,-4.52 24.35,10.81 6.92,4.29 -4.51,3.14 12.24,8.93 1.08,5.22 6.7,10.45 11.47,10.32 1.42,8.87 7.07,2.18 -8.45,10.27 -4.82,2.51 22.75,17.16 4.48,20.89 -9.95,2.03 2.51,0.68 -5.99,7.44 -16.84,13.39 3,0.3 8.33,8.7 5.03,7.91 -4.03,9.06 -10.51,8.8 -1.1,-0.04 -9.86,10.34 -6.25,12.09 15.82,7.7 -1.95,6.73 4,13.54 0.65,0.74 -2.96,16.87 -3.33,16.87 -18.03,0 -3.77,-0.14 -9.89,10 -3.72,6.18 4.28,2.55 -5.89,10.84 -5.81,4.74 7,0.99 -3.23,16.61 -2.06,3.13 -8.08,18.62 -10.36,20.27 1.59,5.82 10.62,6.23 19.06,8.61 -0.38,1.16 -1.08,2.24 -2.24,3.21 -1.62,1.36 3.61,14.9 -1.09,11.56 -6.82,-4.86 -21.94,4.54 -22.04,4.53 0,-15.8 -10.16,-14.37 -11.3,-19.95 -2.88,-14.14 -3.88,-0.84 -4.95,-7.55 -0.22,0.01 -11.06,-2.67 -12.71,-0.84 -14.6,16.23 -2.39,2.94 -14.68,7.2 -2.98,8.6 -9.72,-12.29 -11.3,-0.73 -2.29,16.62 -9.43,-8.72 -9.43,17.5 0,3.88 -22.17,-6.63 -24.16,-8.97 -11.01,-12.9 -11.03,-2.32 -21.47,-6.19 -12.05,-4.48 -6.69,-2.14 -11.35,4.37 -0.2,0.27 -0.39,0.53 -0.59,0.79l0 -0.93 -3.95 0.83z"/>
  <path class="fil0 str0" d="M423.64 1083.58c-0.04,-0.15 -0.07,-0.31 -0.09,-0.47 0.02,0.16 0.05,0.32 0.09,0.47zm-77.96 -164.57c-16.36,2.04 -9.66,3.75 -11.78,9.52 -1.58,4.32 -9.67,-1.95 -5.58,12.33 0.75,2.62 -0.01,1.05 3.76,3.75 2.82,2.02 -2.28,6.26 6.61,6.54 10.46,0.32 1.57,4.9 12.5,-2.85 2.97,-2.1 5.16,-1.08 4.28,-8.59 -0.14,-1.19 -6.41,-2.67 -4.19,-9.9 0.02,-0.05 11.56,-2.83 9.85,-7.76 -6.17,-2.15 -9.18,-5.57 -14.28,-3.76 -0.91,0.32 -0.76,0.66 -1.17,0.72zm59.68 161.11l-0.02 0 0.02 0zm14.54 -33.96c-0.35,-2.11 -0.74,-3.43 -1.17,-3.64 -12.11,-6 -1.2,-20.03 -9.84,-15.05 -18.45,-10.65 -13.36,11.03 -18.75,13.64 -0.08,0.05 -15.93,-18.19 -15.73,-18.23 0.62,-2.68 6.16,-4.73 8.75,-5.62 0.02,-0.07 -7.2,-13.68 -7.34,-13.7 -19.75,-2.93 4.32,-19.22 -20.21,-5.73 -15.58,8.56 1.32,14.38 -5.99,15.89 -0.38,1.11 -5.75,5.15 -8.07,-1.36 -6.46,-18.17 -6.81,3.82 -12.44,-3.28 -11.27,-14.21 -10.63,8.21 -18.5,-1.72 -7.43,-9.36 -21.72,-1.73 -21.77,-1.3 -2.2,17.12 0.48,-1.13 -8.45,13.34 -5.99,9.7 -11.79,-13.77 -11.39,-15.68 10.55,-2.18 9.37,-13.11 12.34,-15 5.74,-3.65 0.05,-8.82 0.05,-18.7 0,-7.5 -15.21,-4.38 -20.62,1.82 -4.56,5.23 -6.26,-0.47 -6.25,-0.73 0.55,-14.08 -6.23,-3.62 -10.52,-5.1 -3.62,-17.54 -16.55,5.54 -19.48,5.78 -20.47,1.71 -9.73,-11.93 -18.75,-11.93 -4.24,0 -13.73,39.46 -20.16,27.5 -3.4,-6.31 -16.1,10.49 -16.09,10.63 0.79,20.05 -15.93,10.65 -32.38,13.55 1.19,-2.37 1.38,-5.5 -3.27,-12.02 -3.24,-4.56 16.16,-11.67 10.94,-21.95 -5.17,-10.16 1.99,-25.26 -15.69,-19.13 -4.16,12.04 -9.16,-2.85 -13.35,9.31 -1.35,3.92 -19.49,-11.51 -14.91,-13.35 10.98,-4.4 19.63,-22.17 -1.36,-18.17 -9.84,1.88 -11.79,-6.83 -0.14,-8.32 4.85,-0.62 -4.87,-7.5 10.02,-8.6 13.76,-1.01 -4.88,-23.36 -16.98,-27.54 -4.71,-22.68 13.76,10.15 22.25,-7.68 9.2,-19.32 8.87,11.35 8.86,-22.51 0.2,-0.26 0.39,-0.52 0.59,-0.79 4.66,-6.51 -0.7,-8.85 11.35,-4.37 10.44,3.87 10.46,-6.71 21.47,6.19 1.99,2.34 24.16,12.85 24.16,8.97 0,-26.22 7.14,-0.88 9.43,-17.5 1.58,-11.56 8.32,9.33 11.3,0.73 12.29,-4.26 0.08,9.03 14.68,-7.2 1.65,-1.83 12.49,0.85 12.71,0.84 1.07,6.71 2.07,-6.59 4.95,7.55 1.14,5.58 11.3,4.15 11.3,19.95 0.1,0.01 15.22,-9.39 22.04,-4.53 4.7,3.34 -0.53,-10.2 1.09,-11.56 10.35,-8.64 -15.91,-25.78 19.37,-25.78 0,22.34 17,-0.83 17.5,11.87 0.73,18.37 17.11,8.51 21.41,11.71 5.41,4.03 -4.18,-6.02 6.09,-7.28 16.8,-2.07 -6.9,-10.05 16.88,-10.05 -0.67,8.45 23.92,-1.81 24.94,7.55 0.72,6.57 15.69,-7.99 15.06,6.82 -0.09,2.13 7.25,6.96 9.37,18.64 0.6,3.26 12.15,4.33 9.43,17.66 -0.25,1.25 -13.77,13.9 -1.41,18.18 0.95,2.73 -9.34,9.47 -3.75,10.63 4.85,13.99 -15.35,7.76 13.29,13.59 0.22,0.04 5.67,6.13 8.12,-6.15 1.48,-7.36 -0.62,6.82 5.52,3.91 4,-1.89 26.97,-1.5 27.04,-1.3 5.99,18.44 0.85,-1.58 14.21,1.14 0.04,0.01 0.54,1.36 1.53,3.48 -3.62,5.1 0.23,14.7 -3.52,18.86 -12.8,14.21 -10.09,10.23 -0.62,14.34 10.47,4.54 16.47,-3.24 21.09,7.96 0.8,1.95 -11.71,12.08 -14.16,13.64 -3.57,2.28 -6.11,10.42 -6.36,3.86 -0.02,-0.51 -13.36,4.98 -11.36,8.29 10.11,16.67 -6.47,12.15 -9.11,13.07 -1.7,8.25 -6.71,-4.41 -8.23,14.89 -0.14,1.8 -9.3,12.06 -9.37,12.09 -4.93,2.44 -6.74,5.82 -8.18,5.46 -1.32,-0.32 -2.47,-0.58 -3.46,-0.78z"/>
  <path class="fil0 str0" d="M405.36 1080.12l-0.02 0c-12.73,0.63 -1.6,17.16 -38.86,15.69 -7.64,-0.3 4.53,7.4 -4.04,8.53 -5.44,0.71 7.98,8.18 -9.17,0.2 -12.44,-5.8 8.54,9.68 -3.19,18.41 -5.21,3.88 3.84,2.76 0.71,18.11 -2.02,9.93 8.2,4.05 -4.42,23.7 -1.47,2.3 1.52,8.2 -11.14,-2.16 -6.19,-5.07 -17.83,8.52 -17.18,0.4 -4.88,1.01 -0.76,16.4 -1.77,16.4 -12.62,0 -29.45,-11.05 -29.48,-0.78 0,0.17 -13.31,5.6 -15.83,6.9 -1.06,0.55 -9.07,-27.81 -13.22,-7.81 -6.21,2.87 -3.54,-8.49 -12.56,3.97 -9.11,0 -1.05,-8.7 -15.63,0.65 -6.6,4.24 -1.64,-26.89 -22.32,-31.18 -2.02,-4.39 13.22,-15.81 -0.06,-17.19 2.92,-25.32 -2.45,-12.2 -6.39,-21.74 -2.03,-4.94 -2.42,13.78 -5.33,-4.76 -1.35,-8.6 -3.54,1.71 -3.2,-21.09 0.01,-0.14 -10.33,-16.71 -14.26,-11.65 -13.61,17.51 -4.45,-5.62 -23.24,4.42 -8.86,4.73 -10.03,16.8 -12.5,-12.24 -0.39,-4.65 11.87,-9.37 -0.78,-9.37 0,-18.41 -9.7,-2.57 -21.67,-10.29 -8.68,-5.6 8.95,-2.48 3.57,-10.74 0.22,-0.71 21.2,-9.7 10.94,-19.53 0.34,-2.18 1.88,-3.57 2.82,-5.43 16.45,-2.9 33.17,6.5 32.38,-13.55 -0.01,-0.14 12.69,-16.94 16.09,-10.63 6.43,11.96 15.92,-27.5 20.16,-27.5 9.02,0 -1.72,13.64 18.75,11.93 2.93,-0.24 15.86,-23.32 19.48,-5.78 4.29,1.48 11.07,-8.98 10.52,5.1 -0.01,0.26 1.69,5.96 6.25,0.73 5.41,-6.2 20.62,-9.32 20.62,-1.82 0,9.88 5.69,15.05 -0.05,18.7 -2.97,1.89 -1.79,12.82 -12.34,15 -0.4,1.91 5.4,25.38 11.39,15.68 8.93,-14.47 6.25,3.78 8.45,-13.34 0.05,-0.43 14.34,-8.06 21.77,1.3 7.87,9.93 7.23,-12.49 18.5,1.72 5.63,7.1 5.98,-14.89 12.44,3.28 2.32,6.51 7.69,2.47 8.07,1.36 7.31,-1.51 -9.59,-7.33 5.99,-15.89 24.53,-13.49 0.46,2.8 20.21,5.73 0.14,0.02 7.36,13.63 7.34,13.7 -2.59,0.89 -8.13,2.94 -8.75,5.62 -0.2,0.04 15.65,18.28 15.73,18.23 5.39,-2.61 0.3,-24.29 18.75,-13.64 8.64,-4.98 -2.27,9.05 9.84,15.05 0.43,0.21 0.82,1.53 1.17,3.64 -12.78,-2.64 -0.97,3.81 -7.11,6.25 -9.66,3.84 -0.58,10.76 -6.82,12.04 -9.88,2.01 -3.26,12.2 -0.61,15.67z"/>
  <path class="fil0 str0" d="M740.17 1085.54c-7.1,-0.21 2.42,5.52 -15.93,7.86 -1.69,0.22 0.32,1.69 -0.8,5.04 -0.04,-0.37 -0.07,-0.75 -0.08,-1.14 -0.18,-4 -12.29,-7.28 -16.82,-7.28 0.91,11.58 -22.11,14.17 -24.22,16.41 -6.1,6.47 -1.44,-9.7 -1.25,-10 2.76,-4.35 0.33,-21.71 -2.5,-22.15 -8.01,-1.23 -19.74,-14.93 -20.21,-9.94 -1.14,12.02 -8.06,7.1 -8.13,5.05 -0.34,-10.63 -9.57,-9.25 -11.87,-10.41 -11.12,-5.6 3.4,-7.37 -5.75,-9.31 -1.9,-6.27 11.62,-14.3 -5.96,-20.39 -1.27,-6.1 -1.79,9.67 -2.61,-11.14 -0.18,-4.46 16.15,2.86 -3.75,-22.5 -5.84,-7.45 16.98,-21.36 -7.39,-26.98 -3.1,-14.96 4.33,-14.27 -7.72,-21.61 -0.07,-0.04 -2.67,-15.8 -11.93,-10.32 -0.79,0.47 -16.32,-12.05 -6.09,-17.7 6.47,-3.56 -3.64,-11.97 6.77,-14.12 3.51,-10.13 -8.24,-18.75 8.23,-8.49 6.86,4.27 1.76,-26.41 6.42,-26.41 10.58,0 7.01,-11.97 13.75,-6.35 7.98,6.65 -0.85,-10.93 8.59,-10.52 3.44,0.15 6.18,-19.36 8.07,0.68 0.5,5.31 26.1,-2.87 15.16,17.44 -4.99,9.25 9.82,2.43 17.23,12.56 10.06,13.74 14.78,0.35 15.16,9.32 0.36,8.46 -11.2,10.14 2.5,19.79 15.62,10.99 0.16,6.08 9.84,-7.97 1.08,-1.56 23.59,-6.53 23.29,0.68 -0.44,10.1 8.66,-1.76 11.19,10.68 1.01,4.96 3.51,-2.9 5.63,7.5 0.07,0.36 8.75,14.67 10.21,12.39 0.12,-0.19 16.67,-11.9 18.75,-5.57 1.57,4.75 4.2,1.99 8.41,1.8 -0.6,5.99 2.46,13.02 -1.7,13.93 -26.17,5.73 -10.71,8.06 -17.75,14.32 -7.49,6.67 0.49,13.08 0.25,13.08 -17.5,0 -3.39,2.36 -20,9.21 -2.65,1.09 0.04,26.79 0.11,26.88 5.26,7.18 -2.15,3.21 -1.41,7.66 2.59,15.54 -6.91,10.99 -4.79,14.21 8.48,12.85 -2.17,28.69 0.57,41.93 9.33,3.23 4.02,2.3 6.25,8.75 0.89,0.19 1.64,1.36 2.28,3.13zm-57.64 53.33c0.21,0.14 0.39,0.29 0.56,0.43 -0.17,-0.14 -0.35,-0.29 -0.56,-0.43zm0.85 0.7c0.07,0.07 0.14,0.14 0.2,0.21 -0.06,-0.07 -0.13,-0.14 -0.2,-0.21zm0.21 0.22c0.06,0.08 0.12,0.15 0.17,0.22 -0.05,-0.07 -0.11,-0.14 -0.17,-0.22zm0.17 0.22c0.06,0.08 0.1,0.15 0.15,0.22zm0 0.01c0.04,0.07 0.07,0.14 0.1,0.2 -0.03,-0.06 -0.06,-0.13 -0.1,-0.2zm0.11 0.22c0.03,0.06 0.05,0.12 0.07,0.18 -0.02,-0.06 -0.04,-0.12 -0.07,-0.18zm0.08 0.22c0.01,0.06 0.02,0.12 0.03,0.18 -0.01,-0.06 -0.02,-0.12 -0.03,-0.18zm0.03 0.2c0.01,0.06 0.01,0.12 0.01,0.18 0,-0.06 0,-0.12 -0.01,-0.18zm0.01 0.2c0,0.07 -0.01,0.13 -0.02,0.19 0.01,-0.06 0.02,-0.12 0.02,-0.19zm-0.02 0.2c-0.01,0.06 -0.03,0.12 -0.05,0.19 0.02,-0.07 0.04,-0.13 0.05,-0.19zm-0.38 0.78c-0.05,0.06 -0.1,0.12 -0.15,0.18l0 0c-0.06,0.06 -0.13,0.12 -0.19,0.18z"/>
  <path class="fil0 str0" d="M723.44 1098.44c-0.34,1.01 -0.96,2.18 -2.05,3.55 -8.22,10.26 5.61,19.52 -17.33,14.84 -7.6,-1.55 5.8,7.01 -11.78,6.32 -1.03,-0.04 -15.52,12.53 -11.52,14.65 11.07,5.85 -7.8,6.92 -16.61,14.84 -1.28,1.15 -15.81,5.42 -6.65,-5.27 4.81,-5.61 -4.63,-10.87 -4.28,-19.53 0.3,-8.03 -23.66,-6.27 -12.72,0.2 6.52,3.86 -10.44,15.87 -1.23,31.83 -10.14,17.57 21.22,9.32 -7.16,29.42 -6.64,4.71 10.23,9.34 -4.55,14.47 -2.18,6.28 -3.21,10.95 -14.98,10.09 -1.2,-0.09 -29.68,-8.24 -10.29,-12.7 0.88,-4.28 -1.72,-22.54 -13.02,-8.26 -0.94,1.19 3.4,31.62 -8.72,16.98 -5.35,-6.45 2.27,-5.29 -4.82,1.5 0.51,3.25 0.44,12.8 -2.86,13.48 -1.17,5.67 -24.24,15 -16.68,-2.48 3.51,-8.09 -1.11,-30.31 -5.6,-22.72 -4,6.76 -15.59,6.26 -4.93,-10.02 1.24,-1.9 -0.19,-17.6 -4.69,-2.86 -16.07,5.37 -6.3,-5.59 -20,4.15 -9.33,6.64 -0.22,-19.1 -16.21,-12.5 -9.53,3.94 3.12,-14.43 -10.22,-16.14 -6.05,-0.77 10.22,-2.95 -10.87,-5.46 -26.51,-3.16 6.59,-14.74 -1.43,-27.35 -2.46,-3.88 6.63,-8.93 -2.07,-11.07 5.78,-2.89 10.58,-3.83 11.83,-4.74 0.07,-0.05 3.7,-20.88 8.28,-20.52 0,-13.27 5.63,9.05 5.63,-4.37 15.3,0 1.65,3.38 12.18,16.25 5.77,7.04 11.67,-12.63 12.14,-14.84 -6.89,-1.95 4.41,-12.74 7.34,-11.25 4.07,2.06 13.74,-2.05 22.25,3.42 0.06,0.04 17.34,6.95 14.37,1.26 -3.53,-6.79 4.46,-23.56 14.22,-15.47 4.85,4.02 14.5,-7.33 20.41,-8.12 7.45,-1.01 5.66,-12.76 18.34,-11.2 19.23,2.37 -1.49,3.77 11.2,10.16 2.3,1.16 11.53,-0.22 11.87,10.41 0.07,2.05 6.99,6.97 8.13,-5.05 0.47,-4.99 12.2,8.71 20.21,9.94 2.83,0.44 5.26,17.8 2.5,22.15 -0.19,0.3 -4.85,16.47 1.25,10 2.11,-2.24 25.13,-4.83 24.22,-16.41 4.53,0 16.64,3.28 16.82,7.28 0.01,0.39 0.04,0.77 0.08,1.14z"/>
  <path class="fil0 str0" d="M992.34 957.36c-3.33,1.22 -7.3,3.67 -8.79,-2.82 -0.33,-0.16 -9.24,-0.49 -9.24,2.99 0,9.73 -20.12,6.27 -11.07,23.05 1.99,3.69 -4.59,13.88 -2.93,31.57 1.27,13.45 0.09,18.02 2.35,34.44 1.18,8.55 3.66,58.36 -2.35,60.74 -14.54,5.77 -7.04,-8.78 -18.3,4.82 -1.69,-0.46 -34.66,-5.19 -15.16,7.61 0.09,0.06 6.63,21.98 -6.45,21.49 -0.07,0 -14.84,-11.5 -14.84,-4.04 -16.28,0 17.05,8.19 -14,21.68 -4.74,2.06 2.13,18.79 -17.18,2.74 -10.38,-8.61 -33.29,9.47 -18.95,-20.58 4.33,-9.08 -4.96,2.4 -4.56,-7.74 0.45,-11.37 -15.39,-1.59 -18.1,-14.71 -0.64,-0.22 -33.47,-4.12 -32.1,-1.5 10.61,20.38 -3.85,-3.45 -8.53,19.2 -1.02,0.21 -8.34,5.58 -6.76,10.16 0.09,0.03 -8.04,-1.28 -9.44,-21.23 -0.62,-8.81 -10.86,-19.34 -17.9,-20.96 -3.86,-11.14 16.24,-14.61 -15.76,-18.55 -0.83,-0.1 -1.53,-0.16 -2.11,-0.18 -0.64,-1.77 -1.39,-2.94 -2.28,-3.13 -2.23,-6.45 3.08,-5.52 -6.25,-8.75 -2.74,-13.24 7.91,-29.08 -0.57,-41.93 -2.12,-3.22 7.38,1.33 4.79,-14.21 -0.74,-4.45 6.67,-0.48 1.41,-7.66 -0.07,-0.09 -2.76,-25.79 -0.11,-26.88 16.61,-6.85 2.5,-9.21 20,-9.21 0.24,0 -7.74,-6.41 -0.25,-13.08 7.04,-6.26 -8.42,-8.59 17.75,-14.32 6.68,-1.46 -5.27,-18.73 9.27,-22.09 2.38,-10.3 -10.72,-1.05 11.2,-11.92 6.24,-3.1 -7.36,-17.97 7.44,-17.97 30.46,0 4.14,-13.84 20.9,-13.12 1.75,0.07 -1.12,-11.22 10.51,-14.38 15.54,-4.21 3.18,-10.79 3.07,-11.25 -1.61,-7.39 10.51,-2.98 10.11,-13.12 -0.02,-0.62 11.45,-9.3 12.66,-13.13 6.77,-21.34 22.81,-9.28 14.22,-1.98 -5.09,4.32 6.87,0.2 0.16,9.64 -0.57,0.8 -1.8,24.53 -1.47,22.91 1.83,-8.98 11.96,-1.33 14.02,-4.89 1.57,-2.69 6.63,3.99 13.02,-3.07 2.73,-3.02 13.6,14.12 14.32,-0.79 0.41,-8.58 20.96,2.99 20.57,-6.82 0,-0.14 0.54,-0.29 1.51,-0.44 2.78,1.77 6.34,2.39 10.41,0.95 3.84,-1.37 1.74,10.09 1.71,10.16 -8.64,20.98 11.5,8.2 13.75,9.53 17.06,10.08 -3.04,23.49 3.86,24.89 13.14,2.68 6.02,2.81 9.54,12.97 12.91,2.67 -8.17,17.61 4.89,17.61 6.69,0 1.72,22.35 5.79,25.41 3.69,2.77 5.18,7.14 6.22,11.89z"/>
  <path class="fil0 str0" d="M1248.68 725.15c0.57,0.31 1.16,0.65 1.8,0.99 0.03,0.02 0.37,-0.21 0.92,-0.57 -0.81,2.57 -1.19,5.36 -1.07,8.24 0.1,2.34 -33.55,23.36 -7.91,21.3 2.04,-0.16 7.11,-5.62 8.02,8.7 0.15,-0.02 10.59,3.22 11.19,6.19 0.35,1.71 1.71,3.6 3.77,5.56 2.61,6.06 10.88,14.33 11,14.65 0.09,0.01 10.2,4.25 12.23,4.95 4.99,14.38 1.13,2.16 5.87,9.18 5.99,8.86 -5.77,12.5 22.39,14.84 17.25,1.44 8.64,17.46 12.57,36.72 0,0.02 -0.07,4.26 -0.07,0.85l-12.5 5.47c-23.93,1.83 -13.02,20.12 -21.49,26.76 -10.85,8.51 1.59,20.39 -15.69,22.38 -8.23,0.95 -4.82,11.67 -17.12,7.31 -4.78,-1.7 -20.4,18.36 -32.23,8.52 -0.06,-0.04 -12.3,-4.81 -12.3,7.68 0,6.49 -14.2,3.91 -22.65,3.91 -14.73,0 -5.98,-11.99 -17.71,-5.34 -2.67,1.52 -0.57,12.42 -22.92,3.19 -9.48,-3.91 -9.36,11.58 -18.95,-1.69 -2.48,-3.44 -33.82,5.34 -39.06,8.32 -14.61,8.3 4.8,-12.08 -11.92,-3.05 -4.66,2.51 -13.76,-3.62 -14.38,2.27 -1.27,12.15 -10.09,-12.31 -8.59,5.67 0.47,5.62 -10.5,18.57 -17.19,11.59 -11.05,1.74 10.76,-23.97 -11.07,-15.63 -7.7,2.94 5.18,-10.62 -6.48,-3.97 -11.94,-7.24 -6.29,12.62 -8.81,12.77 -9.66,0.55 -8.98,15.8 -22.21,4.42 -0.96,-0.83 -2.31,-0.52 -3.78,0.03 -1.04,-4.75 -2.53,-9.12 -6.22,-11.89 -4.07,-3.06 0.9,-25.41 -5.79,-25.41 -13.06,0 8.02,-14.94 -4.89,-17.61 -3.52,-10.16 3.6,-10.29 -9.54,-12.97 -6.9,-1.4 13.2,-14.81 -3.86,-24.89 -2.25,-1.33 -22.39,11.45 -13.75,-9.53 0.03,-0.07 2.13,-11.53 -1.71,-10.16 -15.33,5.44 -23.42,-18.45 -9.84,-22.75 6.21,-1.97 4.84,-8.73 4.84,12.91 19.52,0 5.89,7.74 15.41,-2.72 2.42,-2.66 6.63,5.99 10.32,-4.68 12.68,-4.38 12.56,11.32 11.77,-8.85 -0.21,-5.32 13.96,6.4 5.16,-10.84 -1.03,-2.02 6.3,-13.48 6.66,-17.34 0.45,-4.79 11.73,0.99 14.59,5.05 3.4,4.83 14.8,-9.41 3.48,-11.2 -3.98,-0.62 6.69,-5.68 -9.26,-5.05 -11.68,0.46 10.67,-20.89 6.87,-22.04 -12.11,-3.64 2.67,-18.11 5,-24.83 0,0.1 20.96,22.23 13.91,3.69 -4.03,-10.59 4.24,1.49 3.59,-13.69 -0.41,-9.62 7.5,5.04 7.5,-18.75 30.91,0 3.96,0.48 23.7,-15.16 0.61,-0.49 1.55,-0.94 2.75,-1.36 1.46,0.25 3.05,1.23 3.67,4.23 17.94,4.14 8.47,16.62 11.71,17.03 29.79,3.81 15.95,-2.38 23.18,-3.23 15.51,-1.82 1.89,0.14 15,8.02 30.22,18.16 12.84,9.86 18.28,24.53 3.63,9.79 19.24,-3.31 19.33,-3.12 10.57,23.01 10.56,12.38 16.19,18.75 10.3,11.65 -2.86,2.05 9.89,6.98 5.9,2.28 17.06,-1.82 21.42,-6.98 14.47,-17.14 6.38,-6.08 15.51,-10.41 16.55,-7.85 0.78,-2.47 2.61,-11.36 5.23,-1.81 6.27,3.62 8.8,1.93 4.93,-3.3 14.83,-6.18 20.06,-8.51z"/>
  <path class="fil0 str0" d="M1251.4 725.57c3.3,-2.16 14.11,-8.99 11.52,3.77 -0.84,4.11 20.79,17.57 20.38,7.09 -0.12,-2.83 9.85,-1.06 13.92,-2.47 6.24,-17.99 -4.58,-8.31 -3.77,-18.62 4.73,0 22.49,-3.06 17.97,-5.2 -11.22,-5.32 1.95,-10.67 1.56,-20.58 -0.16,-4.15 11.47,0.99 13.49,-5.47 2.7,-8.67 13.63,14.84 14.64,14.84 20.66,0 10.34,22.12 35.35,14.51 2.52,-0.76 31.92,21.97 31.84,22.21 -1.23,3.55 12.43,25.09 -4.69,11.52 -13.44,-10.65 3.22,-6.96 -19.6,-9.89 -3.22,-0.41 4.2,-4.14 -6.96,-3.19 -0.19,0.02 -12.38,-8.64 -15.76,7.68 -9.7,3.35 -0.19,-4.93 -8.33,7.88 -1.42,2.23 9.75,21.81 9.24,4.95 -0.28,-9.36 11.48,17.77 7.81,17.77 -2.04,0 -15.95,6.51 -21.42,8.33 -4.17,12.51 -10.58,-2.86 -18.42,-2.86 0,-7.39 5.31,-31.08 -9.37,-19.33 -5.97,4.78 15.06,12.08 -16.41,13.93 -10.9,0.64 14.76,6.96 -24.22,6.96 0,-18.21 11.8,-4.18 8.53,-20.24 -0.8,-3.93 -18.2,10.1 -18.69,10.09 -5.68,-0.23 -6.19,2.63 -4.6,6.31 -2.07,-1.96 -3.43,-3.85 -3.78,-5.56 -0.6,-2.97 -11.04,-6.21 -11.19,-6.19 -0.91,-14.32 -5.98,-8.86 -8.02,-8.7 -25.64,2.06 8.01,-18.96 7.91,-21.3 -0.12,-2.88 0.26,-5.67 1.07,-8.24z"/>
  <path class="fil0 str0" d="M1341.24 637.42c-0.07,0.08 -0.13,0.17 -0.17,0.26 0.04,-0.09 0.1,-0.18 0.17,-0.26zm-202.31 -17.24c6.12,-6.43 8.19,-0.05 14.1,-11.42 1.84,-3.54 4.04,4.1 8.62,-2.15 0.69,-0.95 14.28,3.22 16.95,6.15 5.61,6.17 5.1,1.01 3.71,13.43 -0.02,0.16 -8.49,0.39 -9.2,-0.78 -4.2,-6.95 1.33,-4.03 -11.2,-3.67 -4.88,0.14 -2.13,-2.66 -4.32,5.75 -1.31,5.05 1.41,7.05 -4.64,10.46 -9.36,5.27 -0.88,9.51 -14.18,-5.27 -3.56,-3.97 -4.14,-6.97 -4.14,-12.76 0.77,0 4.38,0.17 4.3,0.26zm202.02 17.82c-0.01,0.09 -0.02,0.18 -0.02,0.27 0,-0.09 0.01,-0.18 0.02,-0.27zm3.83 5.91c1.2,1.75 1.41,3.34 -2.11,4.24 -1.44,11.05 -26.94,1.22 -31.96,25.85 -2.5,12.27 -22.05,-8.12 -29.76,21.81 -6.81,0 -10.97,-15.48 -19.26,-5.98 -1.03,1.17 -37.49,-25.33 -18.75,1.22 2.27,3.22 21.02,6.86 2.92,11.14 -0.35,1.03 4.29,6.48 5.34,11.39 -9.88,4.09 -15.13,4.44 -2.52,11.57 -5.23,2.33 -15.13,5.21 -20.06,8.51 -2.53,1.69 -3.57,-3.74 -8.8,-1.93 -1.83,8.89 13.94,3.51 -2.61,11.36 -9.13,4.33 -1.04,-6.73 -15.51,10.41 -4.36,5.16 -15.52,9.26 -21.42,6.98 -12.75,-4.93 0.41,4.67 -9.89,-6.98 -5.63,-6.37 -5.62,4.26 -16.19,-18.75 -0.09,-0.19 -15.7,12.91 -19.33,3.12 -5.44,-14.67 11.94,-6.37 -18.28,-24.53 -13.11,-7.88 0.51,-9.84 -15,-8.02 -7.23,0.85 6.61,7.04 -23.18,3.23 -3.24,-0.41 6.23,-12.89 -11.71,-17.03 -2.17,-10.49 -16.24,3.63 5.46,-11.93 5.93,-4.26 -6.1,-2.79 7.23,-12.34 0.43,-0.31 7.93,-9.06 3.61,-12.09 -10.35,-7.25 7.94,-10.21 -0.52,-19.11 -4.66,-4.9 -19.1,4.38 -26.57,-22.71 -2.24,-8.12 -19.65,4.02 -18.02,-9.22 3.45,-28.05 -18.07,-23.87 -9.02,-33.91 5.54,-6.13 -5.59,-17.39 -0.25,-10.62 1.24,1.57 26.24,18.3 28.7,13.45 1.14,-2.26 17.69,-7.29 9.54,-16.47 9.41,1.41 11.49,-4.86 13.59,1.2 14.23,2.94 -5.44,-19.94 25.83,-2.65 0.19,0.11 22.85,5.14 22.81,3.9 -0.38,-11.79 6.15,2.46 14.94,-8.23 4.98,-6.06 23.46,-4.26 11.93,-15.42 -1.1,-1.06 -5,-10.75 -5,-11.87 20.4,-12.31 3.44,0 23.13,0 0,-2.3 1.43,-4.05 3.75,-5.56 2.89,-0.15 6.03,0.31 6.31,3.69 1.21,14.5 15.44,2.22 15.62,0 0.64,-7.63 8.5,-2.21 8.75,-5.63 0.59,-7.92 -3.8,18.66 -3.8,18.75 15.29,0 15.71,8.72 17.5,2.5 2.88,-10.01 10,-2.14 10,3.75 0,3.37 20.59,5.02 21.47,6.04 5.71,6.7 10.08,1.6 12.75,3.5 2.51,1.79 7.73,20.43 7.71,20.52 -1.78,8.74 -6.68,1.02 2.5,5.05 9.62,4.23 -8.27,8.38 -8.8,11.77 3.37,-0.27 4.34,22.37 3.69,25.57 -5.56,27.28 40.6,-11.65 27.72,12.09 -5.15,9.49 2.22,7.33 2.34,7.34 9.22,0.39 18.76,-5.99 18.8,-5.68 2.47,19.24 9.05,-2.4 10,5 1.47,11.51 8.14,13.46 14.38,11.71z"/>
  <path class="fil0 str0" d="M1320.31 418.24c0.63,-1.51 2.63,-4.25 7.77,-1.19 4.22,2.51 10.78,9 11.04,6.88 0.01,-0.05 4.28,-9.05 8.14,-3.06 2.16,3.36 14.94,9.96 14.06,12.43 -1.72,4.81 8.68,0.48 8.2,-1.07 -0.59,-1.93 -1.81,-9.48 0.07,-9.48 12.73,0 3.86,-6.74 20.09,8.6 6.15,5.81 5.1,1.39 -1.02,5.76 -0.34,0.24 -1.39,0.1 -1.85,0.1l6.64 3.12c-28.68,23.06 -12.5,6.44 -12.5,26.57 1.11,0.09 14.75,-21.67 4.89,1.36 -4.99,11.67 9.31,11.19 10.87,15.7 3.6,1.24 11.59,-1.59 11.59,10.29 -3.68,0 -36.39,-0.75 -14,6.25 16.37,5.11 -12.57,-4.93 -12.57,9.37 0,1.54 -11.21,-1.99 7.3,13.79 2.83,2.41 1.56,19.02 1.3,19.02 -7.19,0 -7.9,4.57 -11.07,-10.8 -0.07,-0.02 -14.71,1.3 -14.71,5.33 0,16.55 -6.25,7.19 -0.21,16.61 6.38,9.94 -16.89,14.8 -4.42,22.97 6.38,4.17 -4.67,-0.71 8.53,-5.4 0.13,-0.05 11.77,-18.6 4.11,4.17 -2.24,6.66 7.49,0.91 8.32,10.87 0.54,6.37 15.33,1.45 7.75,23.31 -12.55,4.35 -3.24,-4.1 -10.16,8.01 -0.35,0.62 -4.25,-5.54 -13.92,-5.54 -6.34,0 -5.12,-5.3 -11.92,0.65 -0.12,0.1 -8.22,1.63 -10.09,7.03 -7.42,1.54 9.94,4.01 -1.3,17.53 -1.35,1.62 1.95,4.19 3.54,6.49 -6.24,1.75 -12.91,-0.2 -14.38,-11.71 -0.95,-7.4 -7.53,14.24 -10,-5 -0.04,-0.31 -9.58,6.07 -18.8,5.68 -0.12,-0.01 -7.49,2.15 -2.34,-7.34 12.88,-23.74 -33.28,15.19 -27.72,-12.09 0.65,-3.2 -0.32,-25.84 -3.69,-25.57 0.53,-3.39 18.42,-7.54 8.8,-11.77 -9.18,-4.03 -4.28,3.69 -2.5,-5.05 0.02,-0.09 -5.2,-18.73 -7.71,-20.52 -2.67,-1.9 -7.04,3.2 -12.75,-3.5 -0.88,-1.02 -21.47,-2.67 -21.47,-6.04 0,-5.89 -7.12,-13.76 -10,-3.75 -1.79,6.22 -2.21,-2.5 -17.5,-2.5 0,-0.09 4.39,-26.67 3.8,-18.75 -0.25,3.42 -8.11,-2 -8.75,5.63 -0.18,2.22 -14.41,14.5 -15.62,0 -0.78,-9.41 -23.66,3.81 -2.09,-10.11 4.29,-2.76 -5.4,-1.77 -6.04,-7.28 6.66,-1.25 8.07,-4.61 8.17,-9.7 3.76,1.81 3.58,3.04 5.99,-3.54 6.99,-19.05 -1.27,2.71 5.63,-8.07 2.81,-4.4 23.43,-3.76 23.75,-3.97 12.08,-7.76 6.8,4.32 13.75,-0.62 14.3,-10.18 6.13,-6.34 9.64,3.8 13.41,3.09 7.33,-9.26 7.34,-9.32 3.96,-19.44 1.23,-5.6 8.7,-8.18 1.72,-7.47 11.15,2.21 7.14,-7.39 -1.67,-3.99 19.57,-5.45 6.14,-8.18 -7.31,-1.49 8.27,-8.67 8.65,-8.75 7.77,-1.58 -0.26,-7.01 4.43,-6.82 14.92,0.59 7.5,8.05 7.5,-3.13 0,-1.34 12.3,-5.04 12.34,-5 9.22,11.54 -1.87,7.52 12.03,6.2 11.76,-1.12 6.03,-10.64 3.09,-13.33z"/>
  <path class="fil0 str0" d="M1198.74 262.23c1.18,-0.49 2.48,-1.78 4.08,-4.18 4.19,-6.28 -1.93,2.99 16.41,2.99 7.4,0 34.38,17.9 34.38,7.68 0,-22.67 0.53,2.18 23.97,-15.36 5.13,-3.84 19.59,4.97 22.71,-8.62 10.1,-1.8 25.58,2.04 25.19,-7.92 -0.27,-6.97 6.12,-7.57 10.55,-3.91 2.83,2.34 10.65,7.4 8.63,11.39 -5.86,11.58 2.57,14.01 -7.46,14.75 -0.32,0.02 -6.21,7.57 -4.33,10.68 3.55,5.87 8.84,7.39 5.04,13.96 0.03,0.05 6.73,4.83 8.77,10.55 1.19,3.34 7.2,0.36 -5.32,11.58 -4.78,4.3 -7.54,11.18 -9.3,16.9 -3.81,0 -3.21,-12.29 -9.96,2.77 -3.64,8.12 8.85,2.38 8.85,15.1 0,15.19 -1.87,3.2 -5.76,12.63 -2.15,5.21 -8.22,16.41 -13.8,17.55 -4.6,0.94 8.23,13.48 8.23,16.05 -10.55,7.82 -20.86,1.33 -0.78,10.05 4.8,2.09 3.06,-3.17 0.49,11.72 -0.94,5.47 -8.29,2.49 0.72,10.48 -0.01,-0.02 0.06,-0.37 0.26,-0.83 2.94,2.69 8.67,12.21 -3.09,13.33 -13.9,1.32 -2.81,5.34 -12.03,-6.2 -0.04,-0.04 -12.34,3.66 -12.34,5 0,11.18 7.42,3.72 -7.5,3.13 -4.69,-0.19 3.34,5.24 -4.43,6.82 -0.38,0.08 -15.96,7.26 -8.65,8.75 13.43,2.73 -7.81,4.19 -6.14,8.18 4.01,9.6 -5.42,-0.08 -7.14,7.39 -7.47,2.58 -4.74,-11.26 -8.7,8.18 -0.01,0.06 6.07,12.41 -7.34,9.32 -3.51,-10.14 4.66,-13.98 -9.64,-3.8 -6.95,4.94 -1.67,-7.14 -13.75,0.62 -0.32,0.21 -20.94,-0.43 -23.75,3.97 -6.9,10.78 1.36,-10.98 -5.63,8.07 -4,10.92 -0.84,0.33 -20.51,1.25 -7.63,0.35 8.25,-27.5 -10.11,-27.5 -7.78,0 6.7,-15.85 0.11,-16.82 -0.05,-0.01 -7.1,-7.22 -5.47,-10.06 -7.53,-11.55 5.35,-9.12 -5.57,-14.53 -13.72,-6.81 10.08,-3.01 -5.73,0.21 -4.84,0.99 -8.01,-12.75 -0.06,-18.34 2.78,-1.95 -2.99,-2.51 4.27,-7.96 10.28,-7.71 -14.27,-1 -14.27,-10 0,-3.65 -0.71,-2.84 -2.73,-3.86 3.22,-4.69 -6.5,-15.73 -5.74,-18.99 15.68,-3.24 -17.19,-9.63 13.01,-15.89 1.47,-7.15 1.88,0.24 9.37,-2.35 1.29,-3.7 -12.5,-28.09 -16.67,-29.35 -11.84,-3.57 9.37,-21.18 9.78,-21.3 3.11,-0.89 7.92,-6.92 9.31,-7.09 16.45,-2.11 1.47,-8.53 15.69,-8.53 13.14,0 3.73,-4 8.59,-3.19 10.45,1.74 4.76,-5.64 10.16,-5.4 9.04,0.38 12.93,-3.23 15.13,-9.07z"/>
  <path class="fil0 str0" d="M870.4 124.53c1.25,0.63 2.79,0.13 5.28,-3.41 1.49,-2.11 14.42,5.36 13.01,-11.96 13.88,-1.52 13.37,18.05 25.14,4.87 1.8,-2.02 26.49,-4.9 26.49,0.91 0,4.25 15.63,20.06 15.63,22.59 0,16.01 15.58,-2.4 17.9,15.76 0.66,5.14 5.03,-7.44 7.81,8.59 2.53,14.57 10.22,-13.27 26.63,-12.56 5.52,0.23 -4.19,-8.4 16.54,-3.98 5.73,1.23 -4.85,7.57 6.19,10.16 10.5,2.47 0.22,19.54 12.23,2.92 5.69,-7.87 5.74,8.49 20.51,9.58 4.3,0.32 -21.05,13.35 10.16,13.35 15.31,0 -16.35,-10.94 28.9,-10.94 5.21,0 10.91,9.62 7.88,10.29 -28.09,6.21 -1.32,16.57 0.07,24.02 5.52,0 2.95,-14.74 19.2,7.1 7.61,10.22 17.3,-30.21 46.36,-24.29 7.28,1.48 -5.27,25.07 -14.13,25.07 0,10.39 20.57,3.44 9.51,16.61 -0.44,0.51 5.21,21.17 10.02,22.65 9.99,3.07 12.62,12.23 17.01,10.37 -2.2,5.84 -6.09,9.45 -15.13,9.07 -5.4,-0.24 0.29,7.14 -10.16,5.4 -4.86,-0.81 4.55,3.19 -8.59,3.19 -14.22,0 0.76,6.42 -15.69,8.53 -1.39,0.17 -6.2,6.2 -9.31,7.09 -0.41,0.12 -21.62,17.73 -9.78,21.3 4.17,1.26 17.96,25.65 16.67,29.35 -7.49,2.59 -7.9,-4.8 -9.37,2.35 -30.2,6.26 2.67,12.65 -13.01,15.89 -0.93,3.99 13.8,19.58 1.42,21.03 -4.23,0.49 -0.1,-5.32 -10.87,-3.13 -9.58,1.95 -35.63,-16.86 -40.04,4.49 -6.39,2.21 -2.83,-9.55 -11.79,8.52 -4.19,8.46 -11.24,-0.79 4.89,12.12 3.13,2.51 -7.53,24.3 -18.17,5.27 -6.25,-11.18 -25.02,-22.19 -22.39,-0.78 0.98,7.95 -18.87,15.52 -14.84,31.97 0.03,0.1 -5.54,7.69 -5.54,15.69 0,25.35 -10.06,9.18 -11.85,17.83 -3.93,1.63 -3.44,-27.3 -13.79,-29.68 -3.93,-11.33 0.74,-1.36 -15.63,-7.04 -3.37,-9.76 8.88,-9.4 -14.98,-8.46 -4.83,0.19 -7.93,-21.5 -16.92,-5.33 -2.38,4.28 -11.75,1.34 -11.2,-14.78 0.06,-1.69 -5.13,-13.02 -4.69,-29.48 0.21,-7.7 -1.87,-23.52 -12.5,-23.06 -9.33,0.4 6.78,-16.56 -14.06,-14.85 -2.55,0.21 -25.45,-45.26 -13.28,6.32 4.41,18.69 -13.84,-11.2 -9.44,12.5 0.33,1.79 -9.71,4.85 3.46,16.07 0.27,0.23 6.38,31.59 -14.6,6.72 -10,-11.84 -4.61,9.16 -13.66,-11.14 -2.38,-5.32 -2.08,4.49 -9.71,-8.39 -2.07,-3.5 26.26,-9.92 0.13,-11.14 -22.48,-1.05 -14.69,19.35 -22.52,14.98 -9.22,-5.14 -14.81,15.87 -49.29,1.63 -9.39,-3.88 -21.23,-4.76 -24.43,-9.19 -0.04,-6.35 -1.99,-33.39 4.62,-33.39 3.9,0 41.65,-0.46 41.48,-4.62 -0.43,-9.9 3.11,-10.16 -2.21,-15.9 -0.55,-0.59 1.22,-10.76 14.7,-9.1 18.27,2.24 8.01,-5.89 16.99,-11.21 2.94,-1.74 1.76,-11.98 1.76,-15.42 8.56,0 15.29,0.29 23.31,-2.48 3.48,-10.06 14.1,-7 1.18,-14.84 -8.22,-5 11.31,-14.35 -19.02,-13.15 -22.83,0.9 -4.74,-21.69 -5.53,-24.93 -2.01,-8.17 9.17,8.53 14.26,-6.19 13.17,-4.56 10.7,5.49 17.19,-13.28 5.42,-1.87 10.78,2.61 14.58,1.3 6.33,-18.27 -7.73,-2.92 10.93,-9.38 2.98,-14.4 12.27,0.98 -2.01,-25.91 -0.03,-0.06 -0.84,-13.36 -6.31,-13.93 -4.07,-11.76 4.21,-14.6 6.4,-26.13zm98.35 132.88c-7.26,3.1 -32.72,9.25 -25.35,23.7 3.3,6.47 -10.35,-1.73 0,14.54 2.43,3.82 -2.71,10.7 7.9,9.47 2.11,-0.25 2.83,-7.94 10.42,-7.34 0,-3.47 0,-6.95 0,-10.42 -3.44,0 -6.25,-1.25 -6.25,-4.69 23.15,0 4.12,3.59 12.59,7.43 7.73,-5.8 12.95,2.41 18.79,-8.47 1.84,-3.41 9.97,-2.97 8.77,-19.27 -0.03,-0.35 -20.15,-13.64 -24.35,-8.33 -0.6,0.76 -2.39,3.33 -2.52,3.38z"/>
  <path class="fil0 str0" d="M143.36 590.05c-8.96,-46.71 -20.61,3.08 -32.09,-30.04 -19.02,-3.95 -5.53,8.61 -10.94,-7.04 -7.64,-2.64 -10.07,5.88 -6.97,-15.04 0.86,-5.76 1.94,6.21 3.91,-7.03 2.54,-17.15 0.75,-9.36 18.04,-10.81 0.06,0 6.82,-4.27 5.69,-6.93 6.33,-1.35 15.13,0.72 15.13,-7.68 0,-0.13 20.31,-3.34 20.31,0.39 0,10.96 4.8,-0.36 7.88,8.53 8.25,1.69 2.88,19.31 18.26,7.48 6.24,-4.79 -1.11,-5.46 12.14,-5.46 5.54,0 -8.91,6.06 4.3,15.33 1.68,1.18 -2.41,6 5.01,8.56 5.15,14.9 1.11,3.7 7.78,7.46 2.93,1.65 0.13,14.06 9.47,5.33 1.36,-1.27 3.91,-0.14 3.91,-4.65 3.28,-0.26 4.3,5.78 6.42,2.24 5.04,-8.44 15.98,-3.71 13.93,-17.51 -0.25,-1.66 -1.99,1.31 -1.99,-4.65 -8.87,0 -8.85,11.32 -9.34,-0.07 -0.35,-8.26 -26.58,-20 -8.59,-19.08 6.89,0.36 -0.87,-4.43 6.6,-3.9 10.27,0.72 4.41,-11.33 7.42,-11.33 0.78,0 12.36,-2.77 12.5,-2.96 10.06,15.64 3.61,-0.58 22.3,-3.65 3.5,-0.57 5.93,1.67 7.72,2.57 1.77,6.3 1.05,11.96 -0.12,12.83 -9.8,7.27 -0.41,6.83 -2.54,10.15 -5.64,8.79 4.7,6.22 2.1,8.28 -10.59,8.38 1.88,15.63 3.57,15.43 20.79,-2.56 19.53,-12.2 19.53,5.4 0,6.61 16.99,20.46 17.97,20.11 19.57,-6.97 2.73,8.31 15.69,0.07 9.63,-6.13 14.7,10.37 17.97,9.57 19.29,-4.72 -4.09,12.92 21.81,10.88 0,21.26 -7.82,6.3 -15.43,12.63 -10.29,8.56 -3.4,1.15 -10.36,1.43 -19.14,0.75 7.79,-14.85 -5.46,-14.85 -7.04,0 -17.43,31.21 -1.57,30.47 13.73,-0.64 -8.69,10.19 4.69,20.89 11.62,9.3 5.29,5.75 5.47,10.36 0.71,17.94 -16.22,3.2 -18.04,17.97 -2.55,20.72 -17.32,5.46 -18.75,12.43 -2.17,10.68 -10.8,-1.98 -13.28,10.16 -2.83,13.89 -16.29,5.47 -18.03,-2.92 -16.75,-5.79 -5.32,-4.64 -12.24,-8.93 -2.01,-15.33 -24.63,-1.27 -24.35,-10.81 0.38,-12.56 -19.45,-10.08 -21.23,-2.41 -6.62,2.3 -7.27,-24.87 -27.21,-24.08 -14.33,0.56 8.34,-10.54 -5.4,-18.24 -12.58,-7.05 -11.27,-19.87 -14.13,-20.11 -16.32,-1.36 1.04,-8.13 -8.59,-7.75 -5.86,0.24 -22.98,-13.94 -15.43,-3.32 5.58,7.83 -14.64,4.83 -14.84,4.69 -0.19,-0.14 -0.39,-0.26 -0.6,-0.39z"/>
  <path class="fil0 str0" d="M121 513.16c-0.7,-1.67 -4.52,-2.71 -15.07,-1.66 -5.84,0.58 -18.77,-5.11 -6.25,-9.44 9.51,-3.3 2.75,-17.88 10.16,-20.52 5.36,-1.9 -8.38,-16.2 4.68,-16.2 0,-19.55 12.48,8.5 13.22,-1.56 0.01,-0.13 16.64,-6.52 17.19,0 0.07,0.84 10.97,17.11 12.7,8.72 38.16,-13.19 -8.11,-3.58 13.21,-20.58 17.03,-13.58 2.2,13.84 19.6,9.58 10.18,-2.49 -7.57,-12.6 20.05,-5.4 0.27,0.66 -1.43,10.34 3.12,1.43 2.76,-5.4 -5.3,-4.23 5.47,-7.95 7.42,-21.47 -4.43,8.03 21.81,6.45 0.2,-0.01 18.59,-21.29 8.01,-20.38 -18.24,1.57 7.92,-9.52 -2.14,-23.64 -7.01,-9.83 27.19,-28.05 14.51,-6.05 1,2.43 27.8,12.04 20.96,-0.78 -5,-9.34 22.75,-19.6 -13.86,-14.91 -1.8,0.23 0.33,3.33 5.73,-7.54 2.7,-5.43 5.77,0.69 5.27,-11.92 -0.26,-6.65 11.16,8.31 10.16,-17.19 -0.02,-0.52 13.06,-5.21 13.38,-11.23 -20.76,-25.8 -8.62,-6.37 5.25,-28.16 4.61,-7.25 -13.71,-3.46 14.26,-7.03 3.56,-0.46 -1.88,-20.01 0.58,-20.52 0.84,-2.42 -9.54,-9.32 9.51,-23.64 13.88,-10.43 -19.68,-12.16 40.62,-12.16 2.37,-9.21 0.17,-25.05 5.41,-20.89 7.34,5.82 10.95,-4.37 12.5,7.68 0.01,0.12 30.53,4.61 30.53,3.05 0,-5.7 -8.21,-7.29 9.24,-9.31 0.54,1.73 -1.76,17.63 5.21,10.78 4.36,5.02 47.37,6.26 47.37,14.07 0,37.62 4.42,5.8 12.3,29.69 1.19,3.59 4.82,-6.03 10.63,6.25 1.18,2.49 2.53,4.03 3.95,4.9 -0.34,0.26 -0.7,0.52 -1.08,0.77 -25.48,16.35 -20.41,-0.2 -33.02,-0.2 0,6.63 -24.57,16.46 -31.51,22.38 -6.81,5.8 -3.43,28.39 -2.93,28.46 15.11,2.24 -18.27,2.85 -12.23,12.24 9.21,14.33 1.82,5.57 -7.88,8.92 -2.41,6.98 -7.21,-4.46 -22.6,2.21 0.2,1.14 -2.06,2.26 -1.95,3.52 0.65,7.69 -4.41,28.37 -9.28,22.3 -17.45,-21.75 -5.08,-1.09 -15.66,3.41 -7.94,3.38 6.71,8.3 1.5,12.47 -5.33,4.26 -6.04,14.25 -7.49,7.2 -4.21,-1.46 -6.87,2.88 -8.14,1.1 -10.98,-15.39 -13.74,8.03 -14.91,2.41 -3.95,-0.82 -10.66,-7.31 -13.24,-8.33 -13.08,8.54 8.02,16.99 8.27,21.94 0.59,11.72 -5.67,5.58 -6.55,6.35 4.42,3.08 -6.83,5.72 -6.77,7.32 0.47,11.99 -7.53,6.18 -7.42,8.99 0.24,6.1 -7,12.54 -11.43,10.87 -8.19,-3.1 -10.36,0.9 -14.49,-7.88 -0.68,-1.47 -9.05,2.8 -9.08,2.83 -9.41,9.25 5.18,8.61 3.72,17.97 -1.93,12.3 -4.62,2.04 -11.66,3.19 -18.69,3.07 -12.24,19.29 -22.3,3.65 -0.14,0.19 -11.72,2.96 -12.5,2.96 -3.01,0 2.85,12.05 -7.42,11.33 -7.47,-0.53 0.29,4.26 -6.6,3.9 -17.99,-0.92 8.24,10.82 8.59,19.08 0.49,11.39 0.47,0.07 9.34,0.07 0,5.96 1.74,2.99 1.99,4.65 2.05,13.8 -8.89,9.07 -13.93,17.51 -2.12,3.54 -3.14,-2.5 -6.42,-2.24 0,4.51 -2.55,3.38 -3.91,4.65 -9.34,8.73 -6.54,-3.68 -9.47,-5.33 -6.67,-3.76 -2.63,7.44 -7.78,-7.46 -7.42,-2.56 -3.33,-7.38 -5.01,-8.56 -13.21,-9.27 1.24,-15.33 -4.3,-15.33 -13.25,0 -5.9,0.67 -12.14,5.46 -15.38,11.83 -10.01,-5.79 -18.26,-7.48 -3.08,-8.89 -7.88,2.43 -7.88,-8.53 0,-3.73 -20.31,-0.52 -20.31,-0.39 0,8.4 -8.8,6.33 -15.13,7.68z"/>
  <path class="fil0 str0" d="M436.02 242.19c1.18,-1.16 2.61,-2.95 4.37,-5.57 0.89,-1.33 4.36,-28.39 9.31,-39.24 0.49,-1.08 5.37,-21.53 4.68,-21.5 -24.43,0.96 0.1,-15.03 -18.68,-14.13 -10.46,0.5 -7.43,24.83 -24.28,11.52 -9.45,-7.46 -26.55,16.54 -6.05,-11.18 6.29,-8.52 13.58,-5.6 16.34,-18.89 9.58,-3.32 10.5,-10.02 15.29,-16.74 3.43,-4.83 5.48,-2.92 15.04,-2.92 18.54,0 2.14,-11.71 43.82,-3.2 6.21,1.27 3.43,20.39 5.33,-5.4 0.42,-5.73 33,-20.31 43.82,-20.31 0,-16.66 -9.1,-2.98 7.03,-10.29 4.74,-2.15 5.33,-23.65 14.06,-23.31 7.26,0.29 -4,-9.83 -4.35,-10.22 5.1,1.09 -0.26,-4.42 9.04,-10.87 0,-11.86 7.52,8.33 11.39,-1.83 22.13,-7.39 7.53,2.07 22.41,9.44 9.32,4.63 6.64,-10.79 19.06,-3.97 -10.5,12.96 -20.43,20.84 5.22,32.95 2.58,1.21 1.06,-11.34 9.76,-8.33 0.22,0.63 17.45,5.64 20.06,-3.06 0.79,-2.63 11.84,-25.98 12.1,-25.98 0.76,0 34.08,5.06 29.49,12.43 -6.16,9.88 4.6,3.74 -11.59,7.03 -0.1,0.03 -9.7,10.86 -7.54,13.66 15.65,20.37 18.76,-2.69 7.48,16.88 7.35,12.76 9.29,3.85 17.05,15.69 5.88,8.98 5.06,4.71 -4.93,16.21 5.54,2.94 6.76,-6.59 6.76,7.94 27.83,0 0.08,2.81 21.3,-12.3 2.25,-1.6 5.35,2.52 13.28,-3.12 7.75,-5.52 -4.39,13.86 0.58,13.86 13.5,0 3.93,-2.85 17.32,-17.05 4.56,-4.84 6.47,18.94 16.85,-4.38 7.56,-16.97 4.8,30.31 22.72,7.17 3.18,-4.1 7.17,5.1 7.17,-9.18 16.87,0 -12.08,-21.09 11.14,-21.09 39.46,0 2.77,4.36 25.65,7.75 5.22,0.77 -15.8,19.39 -2.42,18.81 9.46,-0.4 9.14,11.5 23.44,10.94 2.78,-0.11 4.03,3.21 5.86,4.12 -2.19,11.53 -10.47,14.37 -6.4,26.13 5.47,0.57 6.28,13.87 6.31,13.93 14.28,26.89 4.99,11.51 2.01,25.91 -18.66,6.46 -4.6,-8.89 -10.93,9.38 -3.8,1.31 -9.16,-3.17 -14.58,-1.3 -6.49,18.77 -4.02,8.72 -17.19,13.28 -5.09,14.72 -16.27,-1.98 -14.26,6.19 0.79,3.24 -17.3,25.83 5.53,24.93 30.33,-1.2 10.8,8.15 19.02,13.15 12.92,7.84 2.3,4.78 -1.18,14.84 -8.02,2.77 -14.75,2.48 -23.31,2.48 0,3.44 1.18,13.68 -1.76,15.42 -8.98,5.32 1.28,13.45 -16.99,11.21 -13.48,-1.66 -15.25,8.51 -14.7,9.1 5.32,5.74 1.78,6 2.21,15.9 0.17,4.16 -37.58,4.62 -41.48,4.62 -6.68,0 -4.62,27.64 -4.62,33.59 -37.15,0 -40.74,4.98 -28.12,-16.98 16.51,-28.76 -8.99,-13.83 -17.7,-24.36 -10.73,-12.95 -11.42,1.5 -22.93,1.5 0,-13.92 -15.77,-17.03 -22.52,2.14 -4.46,12.67 -0.32,0.62 -8.73,0.98 -13.15,0.57 -21.11,-11.73 -26.56,-6.83 -4.87,4.38 0.09,1.07 -7.81,7.61 -33.43,27.7 -7.68,-17.26 -38.29,-0.26 -20.82,11.56 -11.18,-2.92 -20.24,-4.49 -8.47,-1.47 -21.61,-20.4 -21.36,-21.03 9.9,-25.66 -8.6,9.46 -17.5,-9.37 -5.81,-12.28 -9.44,-2.66 -10.63,-6.25 -7.88,-23.89 -12.3,7.93 -12.3,-29.69 0,-7.81 -43.01,-9.05 -47.37,-14.07z"/>
  <path class="fil0 str0" d="M391.36 857.39c0.74,-1.14 1.7,-1.18 8.84,-2.64 3.7,-0.76 -2.06,-6.27 3.64,-9.65 1.72,-1.01 5.48,-10.41 10.68,-10.41 0,-14.32 5.22,9.92 9.48,-2.39 9.17,-3.17 24.9,-2.13 24.9,-9.32 0,-37.79 -5.06,-18.98 23.28,-42.55 13.99,-11.64 3.38,-5.2 1.61,-13.75 -11.24,-3.89 -11.8,5.96 -19.38,-10.74 -2.82,-6.22 -13.75,8.96 -17.39,-5.68 -2.04,-8.2 -14.54,-7.57 -15.57,-15.62 -0.26,-2.07 -6.19,0.91 -2.45,-5.57 -2.29,-4.97 -3.37,3.96 -7.09,-6.77 -11.58,-4.01 -3.19,6.36 -10,-6.98 -4.42,-8.67 -11.05,0.48 -12.96,-14.43 -0.01,-0.1 -18.81,2.92 -12.39,-7.91 1.6,-2.71 9.85,-1.36 10.41,-8.91 0.17,-2.37 11.06,1.62 -4.73,-12.72 -0.06,-0.05 7.41,-11.15 10.41,-11.03 10.01,0.39 -12.06,-26.55 -2.45,-24.27 7.03,-7.34 4.28,2.11 7.55,-13.75 5.58,-1.15 20.69,-15.69 -7.6,-14.48 -0.06,0 -13.75,-4.33 -13.75,-5.63 0,-6.72 5.55,-4.79 0.46,-9.45 -2.52,5.32 -8.39,-2.07 -14.15,2.72 -10.29,8.56 -3.4,1.15 -10.36,1.43 -19.14,0.75 7.79,-14.85 -5.46,-14.85 -7.04,0 -17.43,31.21 -1.57,30.47 13.73,-0.64 -8.69,10.19 4.69,20.89 11.62,9.3 5.29,5.75 5.47,10.36 0.71,17.94 -16.22,3.2 -18.04,17.97 -2.55,20.72 -17.33,5.46 -18.75,12.43 -2.17,10.68 -13.4,-6.2 -19.84,17.56 -1.72,6.35 -1.9,5.96 -8.45,10.27 -4.54,2.99 22.75,17.16 4.48,20.89 -9.95,2.03 2.51,0.68 -5.99,7.44 -16.84,13.39 3,0.3 8.33,8.7 5.03,7.91 -4.03,9.06 -10.51,8.8 -1.1,-0.04 -9.86,10.34 -6.25,12.09 15.82,7.7 -1.95,6.73 4,13.54 0.65,0.74 -2.96,16.87 -3.33,16.87 -18.03,0 -3.77,-0.14 -9.89,10 -3.72,6.18 4.28,2.55 -5.89,10.84 -5.81,4.74 7,0.99 -3.23,16.61 -2.06,3.13 -8.08,18.62 -10.36,20.27 1.59,5.82 10.62,6.23 19.06,8.61 2.98,-9.08 -14.17,-22.57 17.13,-22.57 0,22.34 17,-0.83 17.5,11.87 0.73,18.37 17.11,8.51 21.41,11.71 5.41,4.03 -4.18,-6.02 6.09,-7.28 16.8,-2.07 -6.9,-10.05 16.88,-10.05 -0.67,8.45 23.92,-1.81 24.94,7.55 0.72,6.57 15.69,-7.99 15.06,6.82 -0.03,0.63 0.59,1.49 1.53,2.69z"/>
  <path class="fil0 str0" d="M475.37 769.98c3.44,-0.43 6.9,-1.17 11.56,-5.06 11.79,2.62 5.22,7.3 13.91,1.72 4.46,-2.87 -0.56,5.48 10.05,-1.31 4.62,-2.95 24.79,-2.41 13.59,2.5 -12.69,5.57 -4.52,12.05 9.38,6.93 7.68,-2.82 18.43,6.59 10.68,-8.44 -0.04,-0.08 14.88,-11.47 16.87,-1.83 6.32,2.19 15.95,-12.88 21.36,-5.67 8.04,10.7 5.07,-8.1 11.82,-3.75 3.5,2.25 3.24,-2.29 11.72,-2.91 6.95,-0.52 -8.62,-4.43 15,-4.43 5.18,0 8.38,15.03 11.76,15.73 3.78,16.36 22.81,21.85 7.56,31.61 -0.18,0.11 4.16,13.52 0.05,16.57 -2.36,1.75 -4.05,8.71 -5.62,8.59 -1.49,7.2 -9.49,-16.44 -16.72,-4.22 -0.05,0.09 13.82,27.66 1.25,15.93 -6.44,-6.01 -4.74,-3.05 -9.53,10.79 3.74,-0.32 24.06,-0.5 23.75,3.12 -0.13,1.46 -0.22,2.9 -0.29,4.33 -0.82,1.64 -1.68,3 -2.6,2.96 -9.44,-0.41 -0.61,17.17 -8.59,10.52 -6.74,-5.62 -3.17,6.35 -13.75,6.35 -4.66,0 0.44,30.68 -6.42,26.41 -16.47,-10.26 -4.72,-1.64 -8.23,8.49 -6.18,1.27 -5.13,4.75 -4.61,8.11 -5.69,-1.73 -12.64,-1.97 -12.89,-0.5 -1.77,10.45 -10.25,-4.28 -14.73,3.28 -4.04,6.82 -8.42,-1.47 -10.95,1.72 -5.91,7.45 -5.85,-5.01 -12.23,4.89 -4.71,7.3 -2.62,-2.57 -6.98,-2.39 -14.02,0.55 -0.5,-11.93 -9.38,-7.4 -16.23,8.29 11.19,13.65 -22.5,13.65 0.83,9.65 -3.7,7.96 -3.8,9.37 -1.04,14.17 -4.49,2.62 -6.82,2.45 -13.33,-0.98 -2.25,-6.87 -6.82,-6.93 -4.89,-0.07 -7.57,1.26 -9.04,3.32 -0.99,-2.12 -1.49,-3.47 -1.53,-3.48 -13.36,-2.72 -8.22,17.3 -14.21,-1.14 -0.07,-0.2 -23.04,-0.59 -27.04,1.3 -6.14,2.91 -4.04,-11.27 -5.52,-3.91 -2.45,12.28 -7.9,6.19 -8.12,6.15 -28.64,-5.83 -8.44,0.4 -13.29,-13.59 -5.59,-1.16 4.7,-7.9 3.75,-10.63 -12.36,-4.28 1.16,-16.93 1.41,-18.18 2.72,-13.33 -8.83,-14.4 -9.43,-17.66 -1.5,-8.23 -5.59,-13.07 -7.84,-15.95 0.74,-1.14 1.7,-1.18 8.84,-2.64 3.7,-0.76 -2.06,-6.27 3.64,-9.65 1.72,-1.01 5.48,-10.41 10.68,-10.41 0,-14.32 5.22,9.92 9.48,-2.39 9.17,-3.17 24.9,-2.13 24.9,-9.32 0,-37.79 -5.06,-18.98 23.28,-42.55 11.52,-9.58 6.36,-6.91 3.19,-10.45z"/>
  <path class="fil0 str0" d="M406.56 611.81c2.53,3.01 6.29,0.21 6.29,12.01 6.32,0 11.53,-11.34 13.86,-0.11 9.14,1.89 -2.46,11.27 18.81,-1.61 8.84,-5.36 -3.06,16.65 11.09,16.09 4.42,-0.17 0.67,21.98 18.01,5.46 7.32,-6.96 14.82,-1.44 3.34,-17.5 -8.24,-11.52 -0.11,-7.61 -10.78,-9.78 -5.64,-1.15 3.1,-11.93 -5.41,-10.11 -0.11,-0.24 0.86,-10.43 1.03,-11.25 0.09,-0.42 5.86,-6.23 6.2,-6.3 1.28,-3.11 -10.68,-8.87 6.87,-12.5 0.33,-1.57 10.01,12.04 12.72,-1.04 10.44,-2.16 2.62,3.29 14.43,-3.69 0.57,-0.34 12.09,7.13 11.71,16.14 -0.32,7.57 19.76,-11.71 4.79,11.14 -6.94,10.58 21.84,6.16 7.55,18.64 -8.37,7.32 12.17,-3.49 4.7,11.58 -2.18,4.39 13.07,13.67 14.37,15.51 2.44,3.45 2.56,-3.66 9.84,1.83 9.51,7.16 -7.48,23.16 16.93,18.17 0.05,-0.01 8,-6.99 3.75,3.65 -6.54,16.36 -9.36,5.5 5.05,26.14 4.66,6.66 -15.13,1.18 -7.14,14.7 9.41,15.92 -13.2,15.46 22.66,15.46 0,-20.36 7.63,-8.25 21.88,-9.37 0,17.98 -3.38,9.87 -3.75,19.37 -0.15,3.8 5.37,5.78 6.04,13.29l-0.09 0c-23.62,0 -8.05,3.91 -15,4.43 -8.48,0.62 -8.22,5.16 -11.72,2.91 -6.75,-4.35 -3.78,14.45 -11.82,3.75 -5.41,-7.21 -15.04,7.86 -21.36,5.67 -1.99,-9.64 -16.91,1.75 -16.87,1.83 7.75,15.03 -3,5.62 -10.68,8.44 -13.9,5.12 -22.07,-1.36 -9.38,-6.93 11.2,-4.91 -8.97,-5.45 -13.59,-2.5 -10.61,6.79 -5.59,-1.56 -10.05,1.31 -8.69,5.58 -2.12,0.9 -13.91,-1.72 -4.66,3.89 -8.11,4.63 -11.56,5.06l0 0c-0.68,-0.75 -1.27,-1.79 -1.58,-3.3 -11.24,-3.89 -11.8,5.96 -19.38,-10.74 -2.82,-6.22 -13.75,8.96 -17.39,-5.68 -2.04,-8.2 -14.54,-7.57 -15.57,-15.62 -0.26,-2.07 -6.19,0.91 -2.45,-5.57 -2.29,-4.97 -3.37,3.96 -7.09,-6.77 -11.58,-4.01 -3.19,6.36 -10,-6.98 -4.42,-8.67 -11.05,0.48 -12.96,-14.43 -0.01,-0.1 -18.81,2.92 -12.39,-7.91 1.6,-2.71 9.85,-1.36 10.41,-8.91 0.17,-2.37 11.06,1.62 -4.73,-12.72 -0.06,-0.05 7.41,-11.15 10.41,-11.03 10.01,0.39 -12.06,-26.55 -2.45,-24.27 7.03,-7.34 4.28,2.11 7.55,-13.75 3.42,-0.71 10.41,-6.43 8.81,-10.49zm43.18 184.8c0.12,-0.17 0.24,-0.33 0.38,-0.49 -0.14,0.16 -0.26,0.32 -0.38,0.49zm2.28 -2.09c0.22,-0.16 0.46,-0.31 0.71,-0.47 -0.25,0.16 -0.49,0.31 -0.71,0.47z"/>
  <path class="fil0 str0" d="M633.52 850.18c0.07,-1.43 0.16,-2.87 0.29,-4.33 0.31,-3.62 -20.01,-3.44 -23.75,-3.12 4.79,-13.84 3.09,-16.8 9.53,-10.79 12.57,11.73 -1.3,-15.84 -1.25,-15.93 7.23,-12.22 15.23,11.42 16.72,4.22 1.57,0.12 3.26,-6.84 5.62,-8.59 4.11,-3.05 -0.23,-16.46 -0.05,-16.57 15.25,-9.76 -3.78,-15.25 -7.56,-31.61 -1.79,-0.37 -3.53,-4.76 -5.54,-8.8 0.51,-0.03 1.02,0 1.54,0.11 7.73,1.58 -1.47,-5.57 5.68,-7.19 0.08,-0.02 6.92,9.88 8.07,11.23 1.05,1.23 1.15,5.11 6.28,-2.76 3.95,-6.07 3.92,-0.24 10.31,1.51 2.81,0.76 -5.24,4.78 1.48,7.58 6.48,2.69 -2.98,9.6 17.69,1.37 2.28,-0.91 17.08,-1.7 17.08,-3.3 0,-7.15 3.34,-2.63 12.92,-5.86 2.22,-0.75 16.46,-5.72 16.46,-3.86 0,10.56 8.07,6.34 3.17,15.94 -3.06,6 10.55,-3.67 6.59,9.92 -3.3,11.32 9.34,-0.9 15.86,-1.79 4.76,-0.66 -11.56,-12.47 -11.56,-15.63 0,-9.28 8.92,0.92 9.86,5.5 3.45,-0.74 3.94,-11.58 9.85,-0.53 0.33,0.61 3.67,4.5 4.09,6.54 3.94,0.91 4.33,8.49 6.09,8.49 4.44,0 11.79,1.69 14.77,5.03 2.04,2.29 7.77,-9.64 14.71,-3.75 0.66,0.56 6.3,1.78 7.79,-0.23 7.4,-10.01 6.88,-4.77 12.53,-4.51 2.46,0.11 1.08,3.52 7.83,1.04 1.81,-0.66 2.97,2.38 3.16,3.3 6.14,1.27 -1.65,2.83 -5.89,10.4 -3.71,6.63 1.47,4.6 1.77,10.6 -11,0 1.44,21.36 -9.77,21.84 -5.05,0.22 0.28,4.45 -6.79,10.11 -1.4,1.12 4.8,8.29 5.36,6.43 4.82,-16.05 11.39,4.22 14.58,-4.66 1.82,-5.04 4.74,0.81 -0.08,-6.22 -0.86,-1.26 -4.67,-17.72 4.2,-13.7 1.23,0.55 0.11,12.39 8.57,19.37 1.46,1.21 3.44,3.06 5.61,5.27 -0.12,0.13 -0.18,0.22 -0.18,0.27 0.4,10.14 -11.72,5.73 -10.11,13.12 0.11,0.46 12.47,7.04 -3.07,11.25 -11.63,3.16 -8.76,14.45 -10.51,14.38 -16.76,-0.72 9.56,13.12 -20.9,13.12 -14.8,0 -1.2,14.87 -7.44,17.97 -21.92,10.87 -8.82,1.62 -11.2,11.92 -5.49,1.27 -7.2,4.53 -7.57,8.16 -4.21,0.19 -6.84,2.95 -8.41,-1.8 -2.08,-6.33 -18.63,5.38 -18.75,5.57 -1.46,2.28 -10.14,-12.03 -10.21,-12.39 -2.12,-10.4 -4.62,-2.54 -5.63,-7.5 -2.53,-12.44 -11.63,-0.58 -11.19,-10.68 0.3,-7.21 -22.21,-2.24 -23.29,-0.68 -9.68,14.05 5.78,18.96 -9.84,7.97 -13.7,-9.65 -2.14,-11.33 -2.5,-19.79 -0.38,-8.97 -5.1,4.42 -15.16,-9.32 -7.41,-10.13 -22.22,-3.31 -17.23,-12.56 10.94,-20.31 -14.66,-12.13 -15.16,-17.44 -1.38,-14.69 -3.23,-8.13 -5.47,-3.64z"/>
  <path class="fil0 str0" d="M725.51 757.35c1.55,-0.57 3.33,-1.12 5.41,-1.67 11.15,-2.96 -10.86,-24.38 16.92,-23.75 8.51,0.19 -3.92,-5.43 9.43,-8.75 6.24,-1.55 -8.46,-9.26 13.75,-11.2 15.96,-1.39 14.31,-14.03 27.91,4.32 4.69,6.31 -1.17,0.81 6.47,-3.53 0.58,-0.34 -7.69,-9.08 15.78,-12.2 10.75,-1.43 5.79,15.7 14,1.82 0.08,-0.12 0.06,-5.3 5.17,-6.66 7.05,-1.88 4.08,-18.31 12.91,-7.96 3.23,3.79 6.46,-14.94 11.35,-15.95 1.9,-9.2 2.11,-6.77 11.36,-6.77 0,18.89 17.21,11.05 15.57,24.38 -0.73,5.89 17.59,0.94 29.18,9.21 9.25,6.59 -12.17,3.08 -5.84,13.75 0.44,0.74 10.1,2.04 11.72,2.04 0,13.06 -14.46,0.86 0.67,13.23 0.07,0.05 16.98,-14.18 13.7,1.14 -0.31,1.43 -3.73,8.05 5.62,10.63 4.97,1.37 -6.76,6.25 6.26,6.25 5.97,0 4.76,18.01 14.37,25.16 2.25,1.67 7.96,19.25 16.14,7.18 5.32,-7.84 -11.88,-6.4 1.04,-18.22 4.71,-4.31 3.5,-7.42 11.57,-2.77 0.16,-0.07 2.33,-2.63 5.91,-4.58l0.02 0.21 0 0 0.01 0.1 0.01 0.1 0.03 0.17 0 0.03 0.02 0.1 0 0.02 0.04 0.17 0.02 0.1 0.03 0.09 0.05 0.19 0.03 0.1 0.04 0.09 0.06 0.15 0.08 0.2 0.05 0.09 0.13 0.25 0.05 0.09 0.13 0.2 0.09 0.12 0.17 0.22 0.04 0.05c0.07,0.08 0.14,0.16 0.22,0.24l0.06 0.06c0.08,0.07 0.15,0.15 0.24,0.22l0.02 0.02 0 0 0.03 0.02c0.09,0.09 0.19,0.17 0.29,0.24l0.01 0.01 0.03 0.02c0.22,0.16 0.46,0.31 0.72,0.46l0.02 0.01 0.01 0.01c0.13,0.07 0.27,0.14 0.41,0.21l0.01 0 0.02 0.01c0.28,0.14 0.59,0.26 0.92,0.38l0.04 0.02 0.04 0.01c0.16,0.06 0.33,0.11 0.51,0.16 3.8,1.15 -18.55,22.5 -6.87,22.04 15.95,-0.63 5.28,4.43 9.26,5.05 11.32,1.79 -0.08,16.03 -3.48,11.2 -2.86,-4.06 -14.14,-9.84 -14.59,-5.05 -0.36,3.86 -7.69,15.32 -6.66,17.34 8.8,17.24 -5.37,5.52 -5.16,10.84 0.79,20.17 0.91,4.47 -11.77,8.85 -3.69,10.67 -7.9,2.02 -10.32,4.68 -9.52,10.46 4.11,2.72 -15.41,2.72l0 -1 0 -0.95 0.01 -0.91 0 -0.88 0.01 -0.83 0.01 -0.8 0.01 -0.76 0.01 -0.72 0.01 -0.69 0.01 -0.65 0.01 -0.62 0 -0.59 0.01 -0.55 0.01 -0.52 0.01 -0.49 0 0 0.01 -0.46 0 -0.44 0 0 0.01 -0.4c0,-0.39 0,-0.73 0,-1.04l-0.01 -0.3 0 0 0 -0.27 -0.01 -0.24 -0.02 -0.23 0 0 -0.01 -0.2 0 0 -0.02 -0.18 0 0 -0.02 -0.15 0 0 -0.03 -0.14 0 0 -0.03 -0.12 0 0 -0.03 -0.1 -0.04 -0.08 -0.04 -0.06 -0.05 -0.05 0 0 -0.05 -0.03 -0.01 0 -0.05 -0.02 -0.07 0 -0.07 0.01 -0.07 0.03 0 0 -0.08 0.03 0 0 -0.09 0.05 0 0 -0.09 0.06 0 0 -0.1 0.07 0 0 -0.11 0.07 0 0 -0.11 0.09 0 0 -0.12 0.09 0 0 -0.13 0.1 0 0 -0.13 0.1 -0.15 0.11 0 0 -0.15 0.11 -0.16 0.12 0 0 -0.17 0.12 0 0 -0.17 0.13 0 0 -0.19 0.12 -0.19 0.12 -0.21 0.13 0 0 -0.21 0.12 0 0 -0.22 0.12 -0.01 0 -0.23 0.12 -0.24 0.12 0 0 -0.25 0.11 -0.27 0.11 -0.27 0.1 -0.29 0.1c-0.65,0.2 -1.23,0.44 -1.74,0.71 -9.65,4.99 -4.81,21.92 6.25,22.8l0 0c-1.26,9.45 -26.75,-3.03 -27.16,5.55 -0.72,14.91 -11.59,-2.23 -14.32,0.79 -6.39,7.06 -11.45,0.38 -13.02,3.07 -2.06,3.56 -12.19,-4.09 -14.02,4.89 -0.33,1.62 0.9,-22.11 1.47,-22.91 6.71,-9.44 -5.25,-5.32 -0.16,-9.64 8.59,-7.3 -7.45,-19.36 -14.22,1.98 -1.12,3.54 -11.02,11.24 -12.48,12.86 -2.17,-2.21 -4.15,-4.06 -5.61,-5.27 -8.46,-6.98 -7.34,-18.82 -8.57,-19.37 -8.87,-4.02 -5.06,12.44 -4.2,13.7 4.82,7.03 1.9,1.18 0.08,6.22 -3.19,8.88 -9.76,-11.39 -14.58,4.66 -0.56,1.86 -6.76,-5.31 -5.36,-6.43 7.07,-5.66 1.74,-9.89 6.79,-10.11 11.21,-0.48 -1.23,-21.84 9.77,-21.84 -0.3,-6 -5.48,-3.97 -1.77,-10.6 4.24,-7.57 12.03,-9.13 5.89,-10.4 -0.19,-0.92 -1.35,-3.96 -3.16,-3.3 -6.75,2.48 -5.37,-0.93 -7.83,-1.04 -5.65,-0.26 -5.13,-5.5 -12.53,4.51 -1.49,2.01 -7.13,0.79 -7.79,0.23 -6.94,-5.89 -12.67,6.04 -14.71,3.75 -2.98,-3.34 -10.33,-5.03 -14.77,-5.03 -1.76,0 -2.15,-7.58 -6.09,-8.49 -0.42,-2.04 -3.76,-5.93 -4.09,-6.54 -5.91,-11.05 -6.4,-0.21 -9.85,0.53 -0.94,-4.58 -9.86,-14.78 -9.86,-5.5 0,3.16 16.32,14.97 11.56,15.63 -6.52,0.89 -19.16,13.11 -15.86,1.79 3.96,-13.59 -9.65,-3.92 -6.59,-9.92 4.17,-8.16 -1.04,-6.34 -2.7,-12.08z"/>
  <path class="fil0 str0" d="M890.39 683.36c2.77,-2.8 6.3,-5.41 10.86,-8.84 14.54,-10.96 -0.28,-14.04 9.32,-17.34 21.04,-7.23 30.6,0.94 19.43,-13.28 -11.56,-14.71 -4.63,-16.71 -5.74,-19.9 -11.69,-4.04 10.11,-12.58 10.11,-27.6 25.29,0 15.29,0.99 18.18,-22.5 1.17,-9.46 -7.79,-8.5 7.34,-11.99 1.64,-4.71 -10.08,-7.77 5,-11.25 1.13,-3.27 -4.52,-17.49 13.23,-12.39 6.57,1.89 6.32,-6.87 22.5,-6.87 0,13.3 13.71,3.35 -0.84,21.71 -3.8,4.8 12.05,9.91 2.77,16 0,3.48 11.52,-3.87 13.81,7.18 5.72,1.98 -3.27,-5.52 10.52,-3.11 -2.43,6.53 14.06,6.12 11.01,30.94 -1.63,13.24 15.78,1.1 18.02,9.22 7.47,27.09 21.91,17.81 26.57,22.71 8.46,8.9 -9.83,11.86 0.52,19.11 4.32,3.03 -3.18,11.78 -3.61,12.09 -13.33,9.55 -1.3,8.08 -7.23,12.34 -15.5,11.12 -12.75,7.09 -9.13,7.7 -1.2,0.42 -2.14,0.87 -2.75,1.36 -19.74,15.64 7.21,15.16 -23.7,15.16 0,23.79 -7.91,9.13 -7.5,18.75 0.65,15.18 -7.62,3.1 -3.59,13.69 7.05,18.54 -13.91,-3.59 -13.91,-3.69 -1.7,4.91 -10.04,13.95 -9.7,19.89 -3.58,1.95 -5.75,4.51 -5.91,4.58 -8.07,-4.65 -6.86,-1.54 -11.57,2.77 -12.92,11.82 4.28,10.38 -1.04,18.22 -8.18,12.07 -13.89,-5.51 -16.14,-7.18 -9.61,-7.15 -8.4,-25.16 -14.37,-25.16 -13.02,0 -1.29,-4.88 -6.26,-6.25 -9.35,-2.58 -5.93,-9.2 -5.62,-10.63 3.28,-15.32 -13.63,-1.09 -13.7,-1.14 -15.13,-12.37 -0.67,-0.17 -0.67,-13.23 -1.62,0 -11.28,-1.3 -11.72,-2.04 -6.33,-10.67 15.09,-7.16 5.84,-13.75 -11.59,-8.27 -29.91,-3.32 -29.18,-9.21 0.35,-2.83 -0.15,-4.7 -1.15,-6.07zm113.17 72.51c0.09,0.07 0.17,0.14 0.26,0.21 -0.09,-0.07 -0.17,-0.14 -0.26,-0.21zm0.33 0.26c0.09,0.07 0.2,0.13 0.3,0.2 -0.1,-0.06 -0.21,-0.13 -0.3,-0.2zm0.36 0.24c0.1,0.07 0.21,0.13 0.33,0.2 -0.12,-0.07 -0.23,-0.13 -0.33,-0.2zm0.37 0.22l0.38 0.2 -0.37 -0.19 -0.01 -0.01z"/>
  <path class="fil0 str0" d="M999.34 474.61c-2.05,11.81 -5.13,23.07 -4.34,23.04 12.12,-0.48 -8.4,10.83 6.87,15.62 0.28,0.09 -5.72,7.18 -0.21,13.29 0.66,0.73 0.03,2.44 -1.38,4.84l0.34 0c0,13.3 13.71,3.35 -0.84,21.71 -3.8,4.8 12.05,9.91 2.77,16 0,3.48 11.52,-3.87 13.81,7.18 5.72,1.98 -3.27,-5.52 10.52,-3.11 0.32,-0.85 0.95,-1.81 1.99,-2.97 5.54,-6.13 -5.59,-17.39 -0.25,-10.62 1.24,1.57 26.24,18.3 28.7,13.45 1.14,-2.26 17.69,-7.29 9.54,-16.47 9.41,1.41 11.49,-4.86 13.59,1.2 14.23,2.94 -5.44,-19.94 25.83,-2.65 0.19,0.11 22.85,5.14 22.81,3.9 -0.38,-11.79 6.15,2.46 14.94,-8.23 4.98,-6.06 23.46,-4.26 11.93,-15.42 -1.1,-1.06 -5,-10.75 -5,-11.87 20.4,-12.31 3.44,0 23.13,0 0,-2.3 1.43,-4.05 3.75,-5.56 -5.18,0.27 -9.6,2.5 4.22,-6.42 4.29,-2.76 -5.4,-1.77 -6.04,-7.28 6.66,-1.25 8.07,-4.61 8.17,-9.7l0.17 0.08c-2.46,-1.21 -6.68,-2.75 -14.69,-2.37 -7.63,0.35 8.25,-27.5 -10.11,-27.5 -7.78,0 6.7,-15.85 0.11,-16.82 -0.05,-0.01 -7.1,-7.22 -5.47,-10.06 -7.53,-11.55 5.35,-9.12 -5.57,-14.53 -13.72,-6.81 10.08,-3.01 -5.73,0.21 -4.84,0.99 -8.01,-12.75 -0.06,-18.34 2.78,-1.95 -2.99,-2.51 4.27,-7.96 10.28,-7.71 -14.27,-1 -14.27,-10 0,-3.65 -0.71,-2.84 -2.73,-3.86 -0.72,1.04 -2.07,1.77 -4.32,2.04 -4.23,0.49 -0.1,-5.32 -10.87,-3.13 -9.58,1.95 -35.63,-16.86 -40.04,4.49 -6.39,2.21 -2.83,-9.55 -11.79,8.52 -4.19,8.46 -11.24,-0.79 4.89,12.12 3.13,2.51 -7.53,24.3 -18.17,5.27 -6.25,-11.18 -25.02,-22.19 -22.39,-0.78 0.98,7.95 -18.87,15.52 -14.84,31.97 0.03,0.1 -5.54,7.69 -5.54,15.69 0,16.46 -4.24,15.41 -7.7,15.03z"/>
  <path class="fil0 str0" d="M843.08 418.47c-0.88,-8.67 2.67,-11.25 -5.16,-11.25 0,-4.61 6.7,-10.74 8.13,-10.63 0,-7.72 -12.85,1.29 -5.84,-15.62 0.89,-2.14 2.58,-3.21 4.29,-4.43 8.21,17.99 3.29,-1.77 13.06,9.8 20.98,24.87 14.87,-6.49 14.6,-6.72 -13.17,-11.22 -3.13,-14.28 -3.46,-16.07 -4.4,-23.7 13.85,6.19 9.44,-12.5 -12.17,-51.58 10.73,-6.11 13.28,-6.32 20.84,-1.71 4.73,15.25 14.06,14.85 10.63,-0.46 12.71,15.36 12.5,23.06 -0.44,16.46 4.75,27.79 4.69,29.48 -0.55,16.12 8.82,19.06 11.2,14.78 8.99,-16.17 12.09,5.52 16.92,5.33 23.86,-0.94 11.61,-1.3 14.98,8.46 16.37,5.68 11.7,-4.29 15.63,7.04 10.35,2.38 9.86,31.31 13.79,29.68 0.63,-3.03 2.27,-3.01 4.15,-2.8 -2.05,11.81 -5.13,23.07 -4.34,23.04 12.12,-0.48 -8.4,10.83 6.87,15.62 0.28,0.09 -5.72,7.18 -0.21,13.29 0.66,0.73 0.03,2.44 -1.38,4.84l0.34 0c-16.18,0 -15.93,8.76 -22.5,6.87 -17.75,-5.1 -12.1,9.12 -13.23,12.39 -15.08,3.48 -3.36,6.54 -5,11.25 -15.13,3.49 -6.17,2.53 -7.34,11.99 -2.89,23.49 7.11,22.5 -18.18,22.5 0,15.02 -21.8,23.56 -10.11,27.6 1.11,3.19 -5.82,5.19 5.74,19.9 11.17,14.22 1.61,6.05 -19.43,13.28 -9.6,3.3 5.22,6.38 -9.32,17.34 -4.56,3.43 -8.09,6.04 -10.86,8.84 -3.72,-5.14 -14.42,-3.41 -14.42,-18.31 -9.25,0 -9.46,-2.43 -11.36,6.77 -4.89,1.01 -8.12,19.74 -11.35,15.95 -8.83,-10.35 -5.86,6.08 -12.91,7.96 -5.11,1.36 -5.09,6.54 -5.17,6.66 -8.21,13.88 -3.25,-3.25 -14,-1.82 -23.47,3.12 -15.2,11.86 -15.78,12.2 -7.64,4.34 -1.78,9.84 -6.47,3.53 -13.6,-18.35 -11.95,-5.71 -27.91,-4.32 -22.21,1.94 -7.51,9.65 -13.75,11.2 -13.35,3.32 -0.92,8.94 -9.43,8.75 -27.78,-0.63 -5.77,20.79 -16.92,23.75 -2.08,0.55 -3.86,1.1 -5.41,1.67 -0.29,-1.02 -0.47,-2.27 -0.47,-3.86 0,-1.86 -14.24,3.11 -16.46,3.86 -9.58,3.23 -12.92,-1.29 -12.92,5.86 0,1.6 -14.8,2.39 -17.08,3.3 -20.67,8.23 -11.21,1.32 -17.69,-1.37 -6.72,-2.8 1.33,-6.82 -1.48,-7.58 -6.39,-1.75 -6.36,-7.58 -10.31,-1.51 -5.13,7.87 -5.23,3.99 -6.28,2.76 -1.15,-1.35 -7.99,-11.25 -8.07,-11.23 -7.15,1.62 2.05,8.77 -5.68,7.19 -0.52,-0.11 -1.03,-0.14 -1.54,-0.11l0.37 0.74c-1.85,-3.81 -3.93,-7.56 -6.5,-7.67 -0.67,-7.51 -6.19,-9.49 -6.04,-13.29 0.37,-9.5 3.75,-1.39 3.75,-19.37 -1.08,0.08 -2.11,0.09 -3.11,0.04 7.71,-1.67 18.19,-1.17 11.08,-12.84 -3.96,-6.52 0.81,-5.95 -7.28,-8.18 -0.07,-0.02 -4.71,-9.18 10.16,-8.75 6.37,0.18 7.82,-2.12 9.32,-8.64 6.18,-1.43 -1.63,-4.4 8.02,-3.18 9.73,1.23 -9.03,-11.82 16.87,-21.71 0.41,-0.16 8.24,-29.32 1.98,-30.95 -0.2,-0.5 34.52,-33.06 28.02,-14.27 -2.44,7.06 10.46,-6.59 17.91,5.68 6.63,10.91 8.88,2.19 20.68,-3.96 4.36,-2.27 -14.84,-3.88 -5.16,-17.18 4.02,-5.53 -3.45,-8.84 19.48,-8.29 15.23,0.37 6.53,-6.89 19.59,-2.03 3.19,1.18 14.14,-15.05 16.09,-18.13 7.12,-11.24 4,-7.96 22.04,-7.96 0,19.84 9.95,-0.63 11.87,-0.63 10.34,0 1.41,7.87 9.54,2.66 7.39,-4.74 -2.13,10.98 12.91,7.91 5.33,-1.08 5.22,1.35 -3.7,-12.34 -15.06,-23.12 19.6,-29.96 2.61,-35.84 -1.75,-5.06 2.59,-7.14 -1.41,-9.37 -7.13,-3.98 12.64,-7.77 1.88,-14.73 -6.84,-4.43 9.24,-15.79 -9.33,-15.79 0,-17.66 18.13,-4.94 18.13,-7.66 0,-22.54 -6.64,-15.7 -15,-16.09 -10.53,-0.49 15.6,-22.69 10.78,-34.37zm168.95 151.92c-1.7,-0.64 -3.62,-0.57 -5.27,-0.43 1.65,-0.14 3.57,-0.21 5.27,0.43zm-7.66 -0.24c-0.19,0 -0.37,0 -0.54,-0.01 0.17,0.01 0.35,0.01 0.54,0.01zm-112.83 119.28c0.05,-0.4 0.08,-0.78 0.1,-1.14 -0.02,0.36 -0.05,0.74 -0.1,1.14zm-122.43 92.5l0 0 -0.12 0 0.12 0zm-40.62 -13.06l0.32 -0.67c-0.1,0.21 -0.2,0.44 -0.32,0.67zm-1.27 -8.36c-0.12,-0.14 -0.24,-0.29 -0.36,-0.44 0.12,0.15 0.24,0.3 0.36,0.44zm-1.17 -1.75c-0.13,-0.26 -0.25,-0.54 -0.36,-0.85 0.11,0.3 0.23,0.59 0.36,0.85z"/>
  <path class="fil0 str0" d="M509.08 575.89c2.05,-1.62 4.59,-3.57 7.75,-6.07 4.7,-3.72 15.76,13.8 11.14,-8.91 -0.63,-3.1 2.06,-11.13 8.48,-0.52 4.62,7.63 3.78,-8.35 14.13,-0.16 2.59,2.05 5.17,-13.64 17.34,-13.64 0.32,-4.1 -10.7,-0.17 -2.91,-9.22 2.73,-3.18 -21.2,-13 -25.17,-17.14 -7.13,1.57 0.77,-11.03 9.33,-11.72 5.92,-0.47 19.37,-8.09 19.37,-13.17 0,-1.69 2.16,-7.04 -3.64,-8.24 -0.36,-0.87 8.86,-11.97 9.21,-7.44 1.29,16.47 5.36,-9 9.43,-13.07 9.24,-9.24 -6.13,-6.18 4.68,-20.63 7.85,-10.49 -7.38,-14.05 2.36,-19.69 6.84,-3.97 7.82,4.55 7.34,-7.81 -0.02,-0.54 10.6,-7.81 -0.52,-10.11 -2.3,-6.61 13.28,-6.51 1.71,-9.16 -0.17,-0.04 2,-7.93 -17.18,-5.05 6.74,-12.14 10.07,-5.8 13.33,-18.34 1.92,-7.41 7.21,4.41 18.91,3.91 5.81,-0.25 6.17,6.5 11.87,-2.39 5.03,-7.83 15.76,-5.39 11.41,-17.61 -1.79,-5.04 7.77,-7.26 3.07,-8.23 -0.15,-0.44 3.02,-7.02 3.02,-13.02 0,-1.61 -0.08,-4.98 -0.15,-8.97 1.19,2.31 0.65,3.96 3.42,-3.9 6.75,-19.17 22.52,-16.06 22.52,-2.14 11.51,0 12.2,-14.45 22.93,-1.5 8.71,10.53 34.21,-4.4 17.7,24.36 -12.62,21.96 -9.03,16.98 28.12,16.98l0 -0.2c3.2,4.43 15.04,5.31 24.43,9.19 34.48,14.24 40.07,-6.77 49.29,-1.63 7.83,4.37 0.04,-16.03 22.52,-14.98 26.13,1.22 -2.2,7.64 -0.13,11.14 7.63,12.88 7.33,3.07 9.71,8.39l0.6 1.34c-1.71,1.22 -3.4,2.29 -4.29,4.43 -7.01,16.91 5.84,7.9 5.84,15.62 -1.43,-0.11 -8.13,6.02 -8.13,10.63 7.83,0 4.28,2.58 5.16,11.25 4.82,11.68 -21.31,33.88 -10.78,34.37 8.36,0.39 15,-6.45 15,16.09 0,2.72 -18.13,-10 -18.13,7.66 18.57,0 2.49,11.36 9.33,15.79 10.76,6.96 -9.01,10.75 -1.88,14.73 4,2.23 -0.34,4.31 1.41,9.37 16.99,5.88 -17.67,12.72 -2.61,35.84 8.92,13.69 9.03,11.26 3.7,12.34 -15.04,3.07 -5.52,-12.65 -12.91,-7.91 -8.13,5.21 0.8,-2.66 -9.54,-2.66 -1.92,0 -11.87,20.47 -11.87,0.63 -18.04,0 -14.92,-3.28 -22.04,7.96 -1.95,3.08 -12.9,19.31 -16.09,18.13 -13.06,-4.86 -4.36,2.4 -19.59,2.03 -22.93,-0.55 -15.46,2.76 -19.48,8.29 -9.68,13.3 9.52,14.91 5.16,17.18 -11.8,6.15 -14.05,14.87 -20.68,3.96 -7.45,-12.27 -20.35,1.38 -17.91,-5.68 6.5,-18.79 -28.22,13.77 -28.02,14.27 6.26,1.63 -1.57,30.79 -1.98,30.95 -25.9,9.89 -7.14,22.94 -16.87,21.71 -9.65,-1.22 -1.84,1.75 -8.02,3.18 -1.5,6.52 -2.95,8.82 -9.32,8.64 -14.87,-0.43 -10.23,8.73 -10.16,8.75 8.09,2.23 3.32,1.66 7.28,8.18 7.11,11.67 -3.37,11.17 -11.08,12.84l0 0c-12.24,-0.56 -18.77,-9.5 -18.77,9.33 -35.86,0 -13.25,0.46 -22.66,-15.46 -7.99,-13.52 11.8,-8.04 7.14,-14.7 -14.41,-20.64 -11.59,-9.78 -5.05,-26.14 4.25,-10.64 -3.7,-3.66 -3.75,-3.65 -24.41,4.99 -7.42,-11.01 -16.93,-18.17 -7.28,-5.49 -7.4,1.62 -9.84,-1.83 -1.3,-1.84 -16.55,-11.12 -14.37,-15.51 7.47,-15.07 -13.07,-4.26 -4.7,-11.58 14.29,-12.48 -14.49,-8.06 -7.55,-18.64 14.97,-22.85 -5.11,-3.57 -4.79,-11.14 0.2,-4.58 -2.69,-8.77 -5.65,-11.73z"/>
  <path class="fil0 str0" d="M282.16 490.11c1.77,6.3 1.05,11.96 -0.12,12.83 -9.8,7.27 -0.41,6.83 -2.54,10.15 -5.64,8.79 4.7,6.22 2.1,8.28 -10.59,8.38 1.88,15.63 3.57,15.43 20.79,-2.56 19.53,-12.2 19.53,5.4 0,6.61 16.99,20.46 17.97,20.11 19.57,-6.97 2.73,8.31 15.69,0.07 9.63,-6.13 14.7,10.37 17.97,9.57 19.29,-4.72 -4.09,12.92 21.81,10.88 0,5.16 -0.45,8.21 -1.22,9.96 4.99,4.6 -0.52,2.71 -0.52,9.4 0,1.3 13.69,5.63 13.75,5.63 9.89,-0.82 20.98,2.71 22.7,16 6.32,0 11.53,-11.34 13.86,-0.11 9.14,1.89 -2.46,11.27 18.81,-1.61 8.84,-5.36 -3.06,16.65 11.09,16.09 4.42,-0.17 0.67,21.98 18.01,5.46 7.32,-6.96 14.82,-1.44 3.34,-17.5 -8.24,-11.52 -0.11,-7.61 -10.78,-9.78 -5.64,-1.15 3.1,-11.93 -5.41,-10.11 -0.11,-0.24 0.86,-10.43 1.03,-11.25 0.09,-0.42 5.86,-6.23 6.2,-6.3 1.28,-3.11 -10.68,-8.87 6.87,-12.5 0.33,-1.57 10.01,12.04 12.72,-1.04 10.44,-2.16 2.62,3.29 14.43,-3.69 0.28,-0.17 3.2,1.55 6.06,4.41 2.05,-1.62 4.59,-3.57 7.75,-6.07 4.7,-3.72 15.76,13.8 11.14,-8.91 -0.63,-3.1 2.06,-11.13 8.48,-0.52 4.62,7.63 3.78,-8.35 14.13,-0.16 2.59,2.05 5.17,-13.64 17.34,-13.64 0.32,-4.1 -10.7,-0.17 -2.91,-9.22 2.73,-3.18 -21.2,-13 -25.17,-17.14 -7.13,1.57 0.77,-11.03 9.33,-11.72 5.92,-0.47 19.37,-8.09 19.37,-13.17 0,-1.69 2.16,-7.04 -3.64,-8.24 -0.36,-0.87 8.86,-11.97 9.21,-7.44 1.29,16.47 5.36,-9 9.43,-13.07 9.24,-9.24 -6.13,-6.18 4.68,-20.63 7.85,-10.49 -7.38,-14.05 2.36,-19.69 6.84,-3.97 7.82,4.55 7.34,-7.81 -0.02,-0.54 10.6,-7.81 -0.52,-10.11 -2.3,-6.61 13.28,-6.51 1.71,-9.16 -0.17,-0.04 2,-7.93 -17.18,-5.05 6.74,-12.14 10.07,-5.8 13.33,-18.34 1.92,-7.41 7.21,4.41 18.91,3.91 5.81,-0.25 6.17,6.5 11.87,-2.39 5.03,-7.83 15.76,-5.39 11.41,-17.61 -1.79,-5.04 7.77,-7.26 3.07,-8.23 -0.15,-0.44 3.02,-7.02 3.02,-13.02 0,-1.61 -0.08,-4.98 -0.15,-8.97 -0.73,-1.4 -2.12,-3.05 -5.31,-2.92 -13.15,0.57 -21.11,-11.73 -26.56,-6.83 -4.87,4.38 0.09,1.07 -7.81,7.61 -33.43,27.7 -7.68,-17.26 -38.29,-0.26 -20.82,11.56 -11.18,-2.92 -20.24,-4.49 -8.47,-1.47 -21.61,-20.4 -21.36,-21.03 8.59,-22.26 -4.19,1.22 -13.55,-4.47 -0.34,0.26 -0.7,0.52 -1.08,0.77 -25.48,16.35 -20.41,-0.2 -33.02,-0.2 0,6.63 -24.57,16.46 -31.51,22.38 -6.81,5.8 -3.43,28.39 -2.93,28.46 15.11,2.24 -18.27,2.85 -12.23,12.24 9.21,14.33 1.82,5.57 -7.88,8.92 -2.41,6.98 -7.21,-4.46 -22.6,2.21 0.2,1.14 -2.06,2.26 -1.95,3.52 0.65,7.69 -4.41,28.37 -9.28,22.3 -17.45,-21.75 -5.08,-1.09 -15.66,3.41 -7.94,3.38 6.71,8.3 1.5,12.47 -2.82,2.25 -4.34,6.1 -5.37,8.19 1.06,4.42 14.24,6.39 17.09,6.39 9.69,0 4.95,6.87 7.5,6.87 10.91,0 9.58,8.53 11.51,5.55 2.67,-4.14 11.88,0.26 12.3,0.93 0.34,0.55 2.51,12.04 5.96,8.65 7,-6.86 3.14,2.33 9.92,2.06 4.95,-0.2 -10.81,9.51 5.94,17.92 6.52,3.27 7.7,-2.02 11.87,1.74 1.15,1.03 -4.18,15.12 -5.81,17.24 -2.28,2.97 2.98,9.72 4.33,13.41 0.92,2.51 -9.93,1.16 -10.08,0.63 -2.2,-7.67 -6.66,-4.63 -6.17,-3.44 3.07,7.43 -1.64,12.7 -1.64,20.29 0,2.3 -9.04,-1.87 -10.94,-2.84 -4.33,-2.21 -6.91,0 -9.77,-4.58 -1.67,-0.22 -3.72,-2.87 -3.67,-4.51 0.22,-6.9 -8.43,-4.61 -8.43,-11.17 0,-5.03 -11.56,-10.38 -15.68,-4.98 -1.31,1.72 -15.36,-22.16 -8.7,-21.9 1.82,0.07 2.47,-7.75 2.21,-8 -3.26,-3.16 -0.46,-4.89 -2.52,-4.81 -10.45,0.41 -11.92,-6.35 -15.86,-1.25 -6.04,7.82 -5.32,6.26 -9.74,1.25 -3.28,-3.71 2.45,-6.61 2.5,-6.62 2.74,-0.24 0.07,-9.56 2.76,-9.35 6.07,0.48 4.59,-3.39 6.51,-1.79 2.01,1.67 4.99,-4.55 3.6,-6.3 -7.67,-9.59 -7.48,2.62 -8.26,-14.76 -8.5,-7.57 -10.85,10.96 -11.9,5.89 -3.95,-0.82 -10.66,-7.31 -13.24,-8.33 -13.08,8.54 8.02,16.99 8.27,21.94 0.59,11.72 -5.67,5.58 -6.55,6.35 4.42,3.08 -6.83,5.72 -6.77,7.32 0.47,11.99 -7.53,6.18 -7.42,8.99 0.24,6.1 -7,12.54 -11.43,10.87 -8.19,-3.1 -10.36,0.9 -14.49,-7.88 -0.68,-1.47 -9.05,2.8 -9.08,2.83 -9.41,9.25 5.18,8.61 3.72,17.97 -0.97,6.19 -2.13,6.66 -3.94,5.76zm232.57 97.51c0.01,-0.14 0.01,-0.28 0.01,-0.42 0,0.14 0,0.28 -0.01,0.42zm-0.63 -4.16c-0.15,-0.46 -0.34,-0.92 -0.54,-1.37 0.2,0.45 0.39,0.91 0.54,1.37zm130.25 -252.06c-0.12,-0.04 -0.24,-0.26 -0.37,-0.58 0.14,0.32 0.25,0.54 0.37,0.58z"/>
  <path class="fil1 str0" d="M368.26 421.77c-0.91,1.87 -1.44,2.33 -2.12,-0.99 -4.21,-1.46 -6.87,2.88 -8.14,1.1 -1.08,-1.52 -2.08,-2.65 -3.01,-3.48 0.78,17.38 0.59,5.17 8.26,14.76 1.39,1.75 -1.59,7.97 -3.6,6.3 -1.92,-1.6 -0.44,2.27 -6.51,1.79 -2.69,-0.21 -0.02,9.11 -2.76,9.35 -0.05,0.01 -5.78,2.91 -2.5,6.62 4.42,5.01 3.7,6.57 9.74,-1.25 3.94,-5.1 5.41,1.66 15.86,1.25 2.06,-0.08 -0.74,1.65 2.52,4.81 0.26,0.25 -0.39,8.07 -2.21,8 -6.66,-0.26 7.39,23.62 8.7,21.9 4.12,-5.4 15.68,-0.05 15.68,4.98 0,6.56 8.65,4.27 8.43,11.17 -0.05,1.64 2,4.29 3.67,4.51 2.86,4.58 5.44,2.37 9.77,4.58 1.9,0.97 10.94,5.14 10.94,2.84 0,-7.59 4.71,-12.86 1.64,-20.29 -0.49,-1.19 3.97,-4.23 6.17,3.44 0.15,0.53 11,1.88 10.08,-0.63 -1.35,-3.69 -6.61,-10.44 -4.33,-13.41 1.63,-2.12 6.96,-16.21 5.81,-17.24 -4.17,-3.76 -5.35,1.53 -11.87,-1.74 -16.75,-8.41 -0.99,-18.12 -5.94,-17.92 -6.78,0.27 -2.92,-8.92 -9.92,-2.06 -3.45,3.39 -5.62,-8.1 -5.96,-8.65 -0.42,-0.67 -9.63,-5.07 -12.3,-0.93 -1.93,2.98 -0.6,-5.55 -11.51,-5.55 -2.55,0 2.19,-6.87 -7.5,-6.87 -2.85,0 -16.03,-1.97 -17.09,-6.39z"/>
  <path class="fil0 str0" d="M345.68 919.01c-16.36,2.04 -9.66,3.75 -11.78,9.52 -1.58,4.32 -9.67,-1.95 -5.58,12.33 0.75,2.62 -0.01,1.05 3.76,3.75 2.82,2.02 -2.28,6.26 6.61,6.54 10.46,0.32 1.57,4.9 12.5,-2.85 2.97,-2.1 5.16,-1.08 4.28,-8.59 -0.14,-1.19 -6.41,-2.67 -4.19,-9.9 0.02,-0.05 11.56,-2.83 9.85,-7.76 -6.17,-2.15 -9.18,-5.57 -14.28,-3.76 -0.91,0.32 -0.76,0.66 -1.17,0.72z"/>
  <path class="fil0 str0" d="M1138.93 620.18c6.12,-6.43 8.19,-0.05 14.1,-11.42 1.84,-3.54 4.04,4.1 8.62,-2.15 0.69,-0.95 14.28,3.22 16.95,6.15 5.61,6.17 5.1,1.01 3.71,13.43 -0.02,0.16 -8.49,0.39 -9.2,-0.78 -4.2,-6.95 1.33,-4.03 -11.2,-3.67 -4.88,0.14 -2.13,-2.66 -4.32,5.75 -1.31,5.05 1.41,7.05 -4.64,10.46 -9.36,5.27 -0.88,9.51 -14.18,-5.27 -3.56,-3.97 -4.14,-6.97 -4.14,-12.76 0.77,0 4.38,0.17 4.3,0.26z"/>
  <path class="fil0 str0" d="M968.75 257.41c-7.26,3.1 -32.72,9.25 -25.35,23.7 3.3,6.47 -10.35,-1.73 0,14.54 2.43,3.82 -2.71,10.7 7.9,9.47 2.11,-0.25 2.83,-7.94 10.42,-7.34 0,-3.47 0,-6.95 0,-10.42 -3.44,0 -6.25,-1.25 -6.25,-4.69 23.15,0 4.12,3.59 12.59,7.43 7.73,-5.8 12.95,2.41 18.79,-8.47 1.84,-3.41 9.97,-2.97 8.77,-19.27 -0.03,-0.35 -20.15,-13.64 -24.35,-8.33 -0.6,0.76 -2.39,3.33 -2.52,3.38z"/>
  <path class="fil0 str0" d="M480.17 1118.4l-0.27 -0.07c-7.64,-22.03 -26.62,-2.62 -22.72,-24.08 0.01,-0.06 -2.88,-9.69 -10.23,-9.38 -4,0.18 -6.77,-14.35 -11.07,3.84 -0.06,0.02 -12.37,0.05 -12.37,-6.18 0,-11.85 -4.57,-2.53 -8.92,-7.95 -4.41,-5.47 1.2,5.01 -9.23,5.54 -2.65,-3.47 -9.27,-13.66 0.61,-15.67 6.24,-1.28 -2.84,-8.2 6.82,-12.04 6.62,-2.64 -7.63,-9.92 10.57,-5.47 1.44,0.36 3.25,-3.02 8.18,-5.46 0.07,-0.03 9.23,-10.29 9.37,-12.09 1.52,-19.3 6.53,-6.64 8.23,-14.89 2.64,-0.92 19.22,3.6 9.11,-13.07 -2,-3.31 11.34,-8.8 11.36,-8.29 0.25,6.56 2.79,-1.58 6.36,-3.86 2.45,-1.56 14.96,-11.69 14.16,-13.64 -4.62,-11.2 -10.62,-3.42 -21.09,-7.96 -9.47,-4.11 -12.18,-0.13 0.62,-14.34 5.26,-5.84 -4.44,-22.41 12.56,-22.18 4.57,0.06 -6.51,5.95 6.82,6.93 2.33,0.17 5.78,11.72 6.82,-2.45 0.1,-1.41 4.63,0.28 3.8,-9.37 33.69,0 6.27,-5.36 22.5,-13.65 8.88,-4.53 -4.64,7.95 9.38,7.4 4.36,-0.18 2.27,9.69 6.98,2.39 6.38,-9.9 6.32,2.56 12.23,-4.89 2.53,-3.19 6.91,5.1 10.95,-1.72 4.48,-7.56 12.96,7.17 14.73,-3.28 0.25,-1.47 7.2,-1.23 12.89,0.5 0.36,2.31 0.48,4.56 -2.16,6.01 -10.23,5.65 5.3,18.17 6.09,17.7 9.26,-5.48 11.86,10.28 11.93,10.32 12.05,7.34 4.62,6.65 7.72,21.61 24.37,5.62 1.55,19.53 7.39,26.98 19.9,25.36 3.57,18.04 3.75,22.5 0.82,20.81 1.34,5.04 2.61,11.14 17.58,6.09 4.06,14.12 5.96,20.39 -1.29,-0.28 -3.06,-0.56 -5.45,-0.85 -12.68,-1.56 -10.89,10.19 -18.34,11.2 -5.91,0.79 -15.56,12.14 -20.41,8.12 -9.76,-8.09 -17.75,8.68 -14.22,15.47 2.97,5.69 -14.31,-1.22 -14.37,-1.26 -8.51,-5.47 -18.18,-1.36 -22.25,-3.42 -2.93,-1.49 -14.23,9.3 -7.34,11.25 -0.47,2.21 -6.37,21.88 -12.14,14.84 -10.53,-12.87 3.12,-16.25 -12.18,-16.25 0,13.42 -5.63,-8.9 -5.63,4.37 -4.58,-0.36 -8.21,20.47 -8.28,20.52 -1.25,0.91 -6.05,1.85 -11.83,4.74z"/>
 </g>
</svg>
