<svg xmlns="http://www.w3.org/2000/svg" viewBox="0 0 2316 2316" fill-rule="evenodd" clip-rule="evenodd">
	<path d="M1030.23 1796.68l-107.97-.45c-22.55-68.28 19.72-203.15 44.06-258.32 103.27-234.08 291.45-359.57 570.12-379.71 176-12.72 325.31-59.51 445.47-187.37 87.86-93.5 168.41-239.87 175.84-377.59 1.45-26.97-3.09-51.55-2.47-72.1l107.52-1.1c-.29-1.01-.63-2.02-1.03-3L1976.1 231.37c-1.14 261.25 24.14 479.23-106.05 667.93-122.64 177.74-304.09 235.01-514.08 263.81-231.45 31.74-408.44 97.33-515.7 257.9-53.61 80.24-86.6 178.59-97.29 290.78-4.96 52.05-8.29 313.46-4.6 376.74l291.85-291.85zM1286.88 520l105.81.2c2.64 20.62 5.42 31.8 4.65 51.36 0 160.5-104.82 332.48-189.18 412.24-107.01 101.16-240.2 167.01-430.76 174.57-249.46 9.9-446.73 127.89-557.84 348.02-48.88 96.86-69.1 179.78-60.11 288.9l-106.04 1.07 289.32 289.32c9-230.27-25.62-441.24 72.81-626.85 171.93-324.19 493.17-271.67 725.72-338.39 290.54-83.36 439.56-290.17 439.56-625.99l-.27-268.12L1286.88 520zM638.22 2188.69c.28-6.32-.74-13.98-.78-25.49-.27-77.1-.01-154.25-.01-231.35 0-150.65-3.24-288.35 47.55-416.08 96.67-243.08 281.43-326.44 568.92-360.79 244.18-29.17 473.95-121.5 569.44-358.36 55.17-136.87 51.76-246.07 51.76-410.13 0-77.1-.31-154.27-.01-231.36.05-11.92.5-19.25.03-24.75l-99.32-99.31-94.13 94.14v1.93c-.07 10.28.14 20.77.14 31.09.02 77.12 0 154.23 0 231.35 0 157.96 2.95 278.54-52.53 410.22-45.16 107.18-114.38 188.98-212.41 251.04-238.87 151.24-454.01 72.45-707.33 217.7-95.87 54.98-170.53 140.34-214.67 248.4-54.14 132.57-50.66 252.6-50.66 411.83 0 77.11.18 154.23 0 231.34-.03 12.52-.44 20.71-.27 26.78l98.04 98.04 96.24-96.24z" fill="#0291dd"/>
	<path d="M53.2 519.85l103.04.17c.78 57.8-10.5 63.89 8.02 143.23 10.66 45.71 23.02 81.22 40.13 120.62 33.83 77.92 80.62 140.67 127.84 189.81 79.69 82.9 189.05 142.46 310.25 168.1 30.64 6.48 112.53 7.46 142.73-2.66-10.57-7.51-45.16-15.62-60.65-21.17-137.15-49.14-252.53-144.29-319.45-278.86-97.58-196.25-61.1-371.71-69.97-601.17L53.2 519.85zm1121.65 781.73c5.01 12 24.54 23.85 40.76 40.99 39.81 42.08 77.26 91.37 105.46 144.51 53.62 101.06 79.6 189.37 69.83 308.46l-106.74.83 288.32 288.32-.13-313.13c-5.82-180.93-62.58-345.38-193.84-456.17-18.87-15.93-70.95-55-98.05-66.05-21.67-8.84-88.36 41.2-105.61 52.24zm165.65-80.55c172.96 69.89 286.43 214.16 321.81 430.95 18.35 112.46 11.84 245.37 11.84 363.16 0 22.25-2.43 131.22.55 171.76l98.02 98.03 100.34-100.35c.18-1.73.29-3.62.34-5.71 1.71-73.05-.22-148.95-.22-222.34 0-150.7 5.99-269.29-37.56-404.23-54.8-169.8-173.49-275.84-325.5-334.57-86.04-33.24-79.1-28.82-149.56-7.69l-11.63 4.06c-.75.43-1.47.9-2.18 1.37-5.96 3.99-1.63.16-6.25 5.56zm172.88-40.77c187.86 38.86 325.37 144.41 393.47 288.54 85.23 180.37 68.61 394.57 67.65 614.35l285.92-285.93-108.16-.79c5.16-115.7-9.12-174.54-49.86-267.23-82.11-186.84-238.64-312.01-440.17-355.39-38.72-8.34-130.17-1.73-143.88 3.85l-4.97 2.6zm-375.66-164.52c-37-37.92-42.78-34.88-87.56-90.69-25.93-32.32-50.9-70.74-70.64-111.29-37.52-77.03-79.47-189.78-61.32-292.62l112.24-1.46c-.07-.12-.19-.29-.29-.44L737.49 226.59l-.18 320.32c6.57 184.54 67.46 340.97 199.04 455.04 18.75 16.25 69.69 53.67 97.33 66.36 27.18 12.48 100.95-46.56 104.04-52.57zm-162.57 83.28c-14.44-10.94-69.83-36.91-116.48-71.98-32.65-24.53-69.83-62.44-95.6-95.62-147.18-189.52-127.69-402.43-127.69-631.3 0-24.71 3.73-142.2-.88-176.53l-92.52-92.52-105.87 105.87c-1.22 73.33.24 148.27.24 221.79 0 148.86-6.51 271.96 38.68 404.17 56.15 164.25 173.77 275.74 326.42 337.02 18.3 7.35 65.09 26.94 86.49 23.7 20.43-3.08 73.52-15.52 87.21-24.6z" fill="#fff400"/>
</svg>