<?xml version="1.0" encoding="iso-8859-1"?>
<!-- Generator: Adobe Illustrator 19.0.0, SVG Export Plug-In . SVG Version: 6.00 Build 0)  -->
<svg version="1.1" id="Capa_1" xmlns="http://www.w3.org/2000/svg" xmlns:xlink="http://www.w3.org/1999/xlink" x="0px" y="0px"
	 viewBox="0 0 512 512" style="enable-background:new 0 0 512 512;" xml:space="preserve">
<g>
	<g>
		<g>
			<path d="M32,464V48c0-8.837,7.163-16,16-16h240v64c0,17.673,14.327,32,32,32h64v48h32v-64c0.025-4.253-1.645-8.341-4.64-11.36
				l-96-96C312.341,1.645,308.253-0.024,304,0H48C21.49,0,0,21.491,0,48v416c0,26.51,21.49,48,48,48h112v-32H48
				C39.164,480,32,472.837,32,464z" fill="#4db6ac"/>
			<path d="M288,288h32c8.837,0,16,7.163,16,16h32c0-26.51-21.49-48-48-48h-32c-26.51,0-48,21.49-48,48c0,26.51,21.49,48,48,48h32
				c8.837,0,16,7.163,16,16s-7.163,16-16,16h-32c-8.837,0-16-7.163-16-16h-32c0,26.51,21.49,48,48,48h32c26.51,0,48-21.49,48-48
				c0-26.51-21.49-48-48-48h-32c-8.837,0-16-7.163-16-16S279.164,288,288,288z" fill="#4db6ac"/>
			<polygon points="128,288 160,288 160,384 128,384 128,416 224,416 224,384 192,384 192,288 224,288 224,256 128,256 			" fill="#4db6ac"/>
			<path d="M448,256c-35.346,0-64,28.654-64,64v32c0,35.346,28.654,64,64,64c35.346,0,64-28.654,64-64v-32
				C512,284.654,483.346,256,448,256z M480,352c0,17.673-14.327,32-32,32c-17.673,0-32-14.327-32-32v-32c0-17.673,14.327-32,32-32
				c17.673,0,32,14.327,32,32V352z" fill="#4db6ac"/>
		</g>
	</g>
</g>
<g>
</g>
<g>
</g>
<g>
</g>
<g>
</g>
<g>
</g>
<g>
</g>
<g>
</g>
<g>
</g>
<g>
</g>
<g>
</g>
<g>
</g>
<g>
</g>
<g>
</g>
<g>
</g>
<g>
</g>
</svg>
