<svg id="logo" viewBox="0 0 105000 41000" xmlns="http://www.w3.org/2000/svg">
          <path d="m 20390.499,35853.837 c -8554,0 -15488.9991,-6935 -15488.9991,-15489 0,-8554 6933.9991,-15489.0013 15488.9991,-15489.0013 4944,0 9344,2319.001 12179,5926.0013 l 4088,-3258.0003 c -1039,-1303.001 -2234,-2477.001 -3556,-3493.002 -788,1161.001 -2351,1533.001 -3585,820.001 -1235,-713.001 -1695,-2256.001 -1080,-3519.0017 -1629,-675.00032 -3362,-1147.00042 -5170,-1383.000366 -100,1400.000366 -1269,2505.000066 -2695,2505.000066 -1426,0 -2595,-1104.9997 -2695,-2505.000066 -1808,235.999946 -3542,708.000046 -5170,1383.000366 615,1263.0007 155,2806.0007 -1080,3519.0017 -1235,713 -2797.9991,341 -3585.9991,-820.001 -1419,1092.001 -2691,2364.002 -3783,3783.002 1161,788 1533,2351.0003 820,3586.0003 -713,1236 -2255,1694 -3519,1079 -674.99997,1629 -1145.99994,3363 -1382.99994,5170 1399.99994,101 2505.99994,1270 2505.99994,2696 0,1426 -1106,2594 -2505.99994,2694 236,1808 707.99997,3542 1382.99994,5171 1263,-615 2806,-156 3519,1080 713,1234 341,2797 -820,3585 1092,1419 2364,2692 3783,3784 788,-1162 2350.9991,-1534 3585.9991,-821 1236,713 1694,2256 1080,3520 1628,675 3362,1146 5170,1383 100,-1401 1269,-2506 2695,-2506 1426,0 2594,1105 2695,2506 1808,-237 3541,-708 5170,-1383 -615,-1264 -156,-2807 1080,-3520 1234,-713 2797,-341 3585,821 1322,-1017 2517,-2191 3556,-3494 l -4088,-3258 c -2835,3607 -7235,5927 -12179,5927 z"></path>
          <path d="m 17925.499,20979.837 2304,-6753 h 53 l 2224,6753 z m 25470,4477 v -10419 h -11596 l -183,2906 2068,183 c -262,5366 -1313,7271 -3220,7382 -1002,58 -2147,-26 -2147,-26 l -5156,-14372 h -5236 l -5182,14162 -1833,131 157,2722 h 6623 l 183,-2355 -1649,-131 838,-2173 h 6282 l 916,2330 -1440,157 v 2172 c 0,0 8037,157 8455,157 3377,0 5393,-3298 5707,-10365 h 2539 v 7329 l -1414,157 157,2722 h 6414 l 183,-2565 z"></path>
          <path d="m 51536.499,21738.837 v 3875 h 1544 c 1650,0 2670,-629 2670,-2199 0,-1492 -1256,-1676 -2696,-1676 z m -5314,3665 1466,-157 v -7329 l -1361,-157 157,-2723 h 5052 v 4241 h 1596 c 3875,0 6597,994 6597,4031 0,3141 -2277,4816 -6570,4816 h -6754 z"></path>
          <path d="m 67110.499,21424.837 h 2042 v -3874 h -1623 c -1780,0 -2644,393 -2644,1807 0,1360 1021,2067 2225,2067 z m -6334,6701 -183,-2722 2173,-104 1151,-2252 c -1544,-811 -2749,-2146 -2749,-3769 0,-2801 2016,-4241 5995,-4241 h 7042 v 2723 l -1205,157 v 7539 l 1467,104 -184,2565 h -5131 v -4240 h -1989 l -1466,3141 -916,1099 z"></path>
          <polygon points="84038,29106 83854,31305 77807,31305 77624,28583 79090,28426 79090,21097 77729,20940 77886,18217 82938,18217 82938,23243 87911,23243 87911,20573 86891,20416 86891,18217 92938,18217 92938,20940 91734,21097 91734,28636 93200,28740 93016,31305 87911,31305 87911,25913 82938,25913 82938,28976" transform="translate(-1587.5,-3179.1664)"></polygon>
          <path d="m 101873.49,20168.837 -210,-2147 c -340,-340 -968,-785 -1883.997,-785 -1779.994,0 -2749.994,969 -2749.994,4084 0,3167 1283,4580 3429.991,4580 1911,0 3272,-1622 3272,-1622 l 1649,1832 c 0,0 -1387,2513 -5340,2513 -4763.991,0 -7014.991,-2801 -7014.991,-7251 0,-4241 2355,-6806 6202.997,-6806 1099.994,0 2120.994,550 2827.994,1047 l 418,-785 h 2330 l -52,5340 z"></path>
          <polygon points="39816,35128 39840,34656 42272,34656 42704,34624 42712,35978 42224,35978 42185,35152 40910,35152 40910,38127 41414,38151 41383,38591 39840,38591 39808,38119 40280,38095 40280,35152" transform="translate(-1587.5,-3179.1664)"></polygon>
          <path d="m 42659.499,32405.837 v 2282 c 55,63 377,355 991,355 1000,0 1417,-709 1417,-1772 0,-1055 -488,-1416 -1338,-1416 -693,0 -1015,464 -1070,551 z m -1071,4974 -32,-472 473,-24 v -4911 l -464,-24 23,-472 h 992 l 55,441 c 79,-103 456,-551 1314,-551 1071,0 1771,653 1771,1888 0,1292 -637,2268 -1857,2268 -842,0 -1204,-378 -1204,-378 v 1771 l 472,24 -32,440 z"></path>
          <path d="m 46160.499,36891.837 c 0,0 275,95 543,95 433,0 811,-693 1141,-1575 l -1472,-3439 -558,-24 31,-472 h 1023 l 1307,3243 h 8 l 1047,-2771 -418,-15 v -457 h 1520 v 472 l -520,24 -1377,3526 c -443,1133 -976,1991 -1653,1991 -567,0 -685,-165 -685,-165 z"></path>
          <polygon points="53619,38151 53588,38591 52076,38591 52044,38119 52516,38095 52516,35152 52052,35128 52076,34656 56240,34656 56240,35128 55807,35152 55807,38127 56279,38151 56248,38591 55169,38591 55169,35152 53146,35152 53146,38127" transform="translate(-1587.5,-3179.1664)"></polygon>
          <polygon points="58427,38151 58395,38591 56884,38591 56852,38119 57325,38095 57325,35152 56860,35128 56884,34656 61048,34656 61048,35128 60615,35152 60615,38127 61087,38151 61056,38591 59977,38591 59977,35152 57954,35152 57954,38127" transform="translate(-1587.5,-3179.1664)"></polygon>
          <path d="m 62717.499,34498.837 v -999 c -952,71 -1976,118 -1976,834 0,496 307,748 929,748 764,0 1023,-527 1047,-583 z m -2267,-1826 24,-1235 h 401 l 55,291 c 205,-150 567,-362 1063,-362 881,0 1354,440 1354,1432 v 2149 l 472,24 -31,440 h -961 l -94,-504 c -71,127 -386,615 -1252,615 -897,0 -1385,-418 -1385,-1126 0,-1149 1621,-1212 2621,-1314 v -276 c 0,-685 -236,-976 -889,-976 -449,0 -740,212 -866,331 l -32,511 z"></path>
          <polygon points="71356,38080 72072,38087 72040,38591 71072,38591 70766,38261 69577,36663 69112,36876 69112,38158 69522,38182 69499,38591 68043,38591 68011,38119 68483,38095 68483,35152 67956,35128 67987,34656 69112,34656 69112,36419 69687,36151 70514,35097 70270,35081 70293,34656 71765,34656 71765,35128 71080,35191 70104,36364" transform="translate(-1587.5,-3179.1664)"></polygon>
          <path d="m 74017.499,33420.837 c 0,-999 -393,-1590 -1298,-1590 -898,0 -1300,598 -1300,1590 1,1000 402,1637 1300,1637 905,0 1298,-637 1298,-1637 z m -3250,-8 c 0,-1283 668,-2046 1952,-2046 1290,0 1952,763 1952,2046 0,1283 -693,2110 -1952,2110 -1284,0 -1952,-827 -1952,-2110 z"></path>
          <polygon points="81334,35364 81326,35364 79941,38591 79335,38591 77902,35372 77902,35443 77839,38143 78280,38166 78249,38591 76879,38591 76848,38119 77304,38103 77430,35136 77414,35152 76919,35128 76950,34656 78256,34656 79642,38048 81051,34656 82342,34656 82342,35128 81885,35152 81932,38135 82405,38151 82381,38591 81374,38591 81334,35671" transform="translate(-1587.5,-3179.1664)"></polygon>
          <polygon points="84568,38151 84536,38591 83025,38591 82994,38119 83466,38095 83466,35152 83002,35128 83025,34656 87189,34656 87189,35128 86756,35152 86756,38127 87228,38151 87197,38591 86118,38591 86118,35152 84095,35152 84095,38127" transform="translate(-1587.5,-3179.1664)"></polygon>
          <path d="m 88858.499,34498.837 v -999 c -952,71 -1976,118 -1976,834 1,496 308,748 929,748 764,0 1023,-527 1047,-583 z m -2267,-1826 24,-1235 h 402 l 54,291 c 205,-150 567,-362 1063,-362 881,0 1354,440 1354,1432 v 2149 l 472,24 -31,440 h -961 l -94,-504 c -71,127 -386,615 -1252,615 -896,0 -1385,-418 -1385,-1126 0,-1149 1622,-1212 2621,-1314 v -276 c 0,-685 -236,-976 -889,-976 -449,0 -740,212 -866,331 l -32,511 z"></path>
          <polygon points="93531,38206 93507,38591 92051,38591 92019,38119 92491,38095 92491,35152 92027,35128 92051,34656 93121,34656 93121,36332 95215,36332 95215,35057 94814,35034 94814,34656 96277,34656 96277,35128 95844,35152 95844,38127 96317,38151 96286,38591 95215,38591 95215,36797 93121,36797 93121,38190" transform="translate(-1587.5,-3179.1664)"></polygon>
          <polygon points="97803,38591 97339,38591 97339,35152 96875,35128 96898,34656 97969,34656 97969,37631 100228,34656 101283,34656 101283,35128 100818,35152 100818,38127 101290,38151 101259,38591 99740,38591 99740,38182 100180,38135 100180,35482" transform="translate(-1587.5,-3179.1664)"></polygon>
          <path d="m 103290.49,30004.837 v -8 l 567,78 c 0,0 -165,804 -1362,804 -1188,0 -1354,-804 -1354,-804 l 567,-78 v 8 c 0,0 110,464 787,464 685,0 795,-464 795,-464 z m -165,5407 v -409 l 440,-47 v -2653 l -2377,3109 h -464 v -3439 l -465,-24 24,-472 h 1071 v 2975 l 2259,-2975 h 1055 v 472 l -465,24 v 2975 l 472,24 -31,440 z"></path>
        </svg>