<?xml version="1.0" encoding="iso-8859-1"?>
<!-- Generator: Adobe Illustrator 19.0.0, SVG Export Plug-In . SVG Version: 6.00 Build 0)  -->
<svg version="1.1" id="Layer_1" xmlns="http://www.w3.org/2000/svg" xmlns:xlink="http://www.w3.org/1999/xlink" x="0px" y="0px"
	 viewBox="0 0 512 512" style="enable-background:new 0 0 512 512;" xml:space="preserve">
<g>
	<g>
		<g>
			<path d="M439.242,172.463H328.758V91.621h2.695c10.401,0,18.863-8.463,18.863-18.863V59.284h2.695
				c10.401,0,18.863-8.463,18.863-18.863V18.863C371.874,8.463,363.411,0,353.01,0h-32.337c-4.466,0-8.084,3.619-8.084,8.084
				s3.618,8.084,8.084,8.084h32.337c1.486,0,2.695,1.208,2.695,2.695v21.558c0,1.486-1.208,2.695-2.695,2.695H158.99
				c-1.486,0-2.695-1.208-2.695-2.695V18.863c0-1.486,1.208-2.695,2.695-2.695h129.347c4.466,0,8.084-3.619,8.084-8.084
				S292.803,0,288.337,0H158.99c-10.401,0-18.863,8.463-18.863,18.863v21.558c0,10.401,8.463,18.863,18.863,18.863h2.695v13.474
				c0,10.401,8.463,18.863,18.863,18.863h2.695v80.842H72.758c-10.401,0-18.863,8.463-18.863,18.863v21.558
				c0,10.401,8.463,18.863,18.863,18.863h64.674c4.466,0,8.084-3.618,8.084-8.084c0-4.466-3.618-8.084-8.084-8.084h-15.407
				l26.947-26.947h65.092l-26.947,26.947h-17.348c-4.466,0-8.084,3.618-8.084,8.084c0,4.466,3.619,8.084,8.084,8.084h229.053v80.842
				h-50.763l-8.936-26.809c-1.099-3.302-4.189-5.527-7.669-5.527H180.547c-3.479,0-6.569,2.226-7.669,5.527l-8.936,26.809h-50.763
				V256c0-4.466-3.618-8.084-8.084-8.084c-4.466,0-8.084,3.619-8.084,8.084v64.674c0,4.466,3.618,8.084,8.084,8.084h64.674
				c3.479,0,6.569-2.226,7.669-5.527l8.936-26.809h139.253l8.936,26.809c1.099,3.302,4.189,5.527,7.669,5.527h64.674
				c4.466,0,8.084-3.618,8.084-8.084v-88.926h24.253c10.401,0,18.863-8.463,18.863-18.863v-21.558
				C458.105,180.926,449.643,172.463,439.242,172.463z M99.159,215.579H72.758c-1.486,0-2.695-1.208-2.695-2.695v-21.558
				c0-1.486,1.208-2.695,2.695-2.695h53.348L99.159,215.579z M307.2,59.284h26.947v13.474c0,1.486-1.208,2.695-2.695,2.695h-21.558
				c-1.486,0-2.695-1.208-2.695-2.695V59.284z M180.547,75.453c-1.486,0-2.695-1.208-2.695-2.695V59.284H204.8v13.474
				c0,1.486-1.208,2.695-2.695,2.695H180.547z M199.411,172.463V91.621h2.695c10.401,0,18.863-8.463,18.863-18.863V59.284h70.063
				v13.474c0,10.401,8.463,18.863,18.863,18.863h2.695v16.168h-88.926c-4.466,0-8.084,3.618-8.084,8.084
				c0,4.466,3.618,8.084,8.084,8.084h88.926v16.168h-88.926c-4.466,0-8.084,3.618-8.084,8.084c0,4.466,3.618,8.084,8.084,8.084
				h88.926v16.168H199.411z M209.98,215.579l26.947-26.947h65.091l-26.947,26.947H209.98z M297.937,215.579l26.947-26.947h65.092
				l-26.947,26.947H297.937z M441.937,212.884c0,1.486-1.208,2.695-2.695,2.695h-32.337h-21.011l26.947-26.947h26.401
				c1.486,0,2.695,1.208,2.695,2.695V212.884z" fill="#4db6ac"/>
			<path d="M439.242,452.716h-24.253v-78.147c0-4.466-3.618-8.084-8.084-8.084H326.5l-8.936-26.809
				c-1.412-4.236-5.99-6.522-10.226-5.112c-4.236,1.411-6.525,5.99-5.112,10.226l10.779,32.337c1.099,3.302,4.189,5.527,7.669,5.527
				h78.147v70.063H113.179v-70.063h78.147c3.479,0,6.569-2.226,7.669-5.527l8.936-26.809h69.627c4.466,0,8.084-3.618,8.084-8.084
				c0-4.466-3.618-8.084-8.084-8.084h-75.453c-3.479,0-6.569,2.226-7.669,5.527l-8.936,26.809h-80.406
				c-4.466,0-8.084,3.619-8.084,8.084v78.147H72.758c-10.401,0-18.863,8.463-18.863,18.863v21.558
				c0,10.401,8.463,18.863,18.863,18.863h366.484c10.401,0,18.863-8.463,18.863-18.863v-21.558
				C458.105,461.178,449.643,452.716,439.242,452.716z M72.758,495.832c-1.486,0-2.695-1.208-2.695-2.695v-21.558
				c0-1.486,1.208-2.695,2.695-2.695h53.348l-26.947,26.947H72.758z M122.024,495.832l26.947-26.947h65.092l-26.947,26.947H122.024z
				 M209.98,495.832l26.947-26.947h65.091l-26.947,26.947H209.98z M297.937,495.832l26.947-26.947h65.092l-26.947,26.947H297.937z
				 M441.937,493.137c0,1.486-1.208,2.695-2.695,2.695h-53.348l26.947-26.947h26.401c1.486,0,2.695,1.208,2.695,2.695V493.137z" fill="#4db6ac"/>
			<path d="M234.442,91.621h43.116c4.466,0,8.084-3.619,8.084-8.084s-3.618-8.084-8.084-8.084h-43.116
				c-4.466,0-8.084,3.619-8.084,8.084S229.976,91.621,234.442,91.621z" fill="#4db6ac"/>
		</g>
	</g>
</g>
<g>
</g>
<g>
</g>
<g>
</g>
<g>
</g>
<g>
</g>
<g>
</g>
<g>
</g>
<g>
</g>
<g>
</g>
<g>
</g>
<g>
</g>
<g>
</g>
<g>
</g>
<g>
</g>
<g>
</g>
</svg>
