<?xml version="1.0" encoding="iso-8859-1"?>
<!-- Generator: Adobe Illustrator 19.0.0, SVG Export Plug-In . SVG Version: 6.00 Build 0)  -->
<svg version="1.1" id="Capa_1" xmlns="http://www.w3.org/2000/svg" xmlns:xlink="http://www.w3.org/1999/xlink" x="0px" y="0px"
	 viewBox="0 0 512.001 512.001" style="enable-background:new 0 0 512.001 512.001;" xml:space="preserve">
<g>
	<g>
		<path d="M501.999,40.006H377.996V10.007c0-5.522-4.477-10-10-10H144.002c-5.523,0-10,4.478-10,10v29.999H10
			c-5.523,0-10,4.478-10,10v39.999c0,5.522,4.477,10,10,10h124.003v6c0,2.792,1.147,5.314,2.993,7.129l70.178,70.178
			c1.46,1.46,3.327,2.414,5.333,2.768v37.906c0,3.52,1.85,6.779,4.871,8.584l27.907,16.676
			c-2.312,8.482-10.062,14.745-19.267,14.745h-77.739c-4.809,0-8.937,3.423-9.827,8.147l-5.297,28.104
			c-5.966,2.7-11.644,5.99-16.968,9.832l-23.606-7.629c-4.484-1.45-9.372,0.43-11.731,4.509l-25.496,44.083
			c-2.362,4.085-1.548,9.265,1.954,12.428l18.438,16.654c-0.328,3.284-0.494,6.591-0.494,9.881s0.166,6.597,0.494,9.881
			l-18.438,16.654c-3.501,3.163-4.315,8.343-1.954,12.428l25.496,44.083c2.359,4.078,7.247,5.958,11.731,4.509l23.606-7.629
			c5.368,3.873,11.096,7.186,17.116,9.898l5.199,24.269c0.988,4.611,5.063,7.905,9.778,7.905h50.921
			c4.716,0,8.791-3.294,9.778-7.905l5.199-24.269c6.02-2.713,11.748-6.025,17.116-9.898l23.606,7.629
			c4.483,1.449,9.373-0.431,11.731-4.509l25.496-44.083c2.362-4.085,1.548-9.265-1.954-12.428l-18.438-16.654
			c0.328-3.284,0.494-6.591,0.494-9.881s-0.166-6.597-0.494-9.881l18.438-16.654c3.501-3.163,4.315-8.343,1.954-12.428
			l-25.496-44.083c-2.359-4.079-7.248-5.959-11.731-4.509l-23.606,7.629c-6.862-4.951-14.312-8.985-22.207-12.023
			c-5.155-1.982-10.941,0.59-12.923,5.744c-1.982,5.155,0.589,10.94,5.744,12.923c7.654,2.944,14.783,7.066,21.188,12.253
			c2.626,2.127,6.149,2.782,9.368,1.744l20.901-6.755l17.401,30.087l-16.31,14.732c-2.504,2.262-3.698,5.634-3.176,8.968
			c0.632,4.038,0.953,8.161,0.953,12.253c0,4.092-0.321,8.215-0.953,12.253c-0.522,3.334,0.672,6.706,3.176,8.968l16.31,14.732
			l-17.401,30.087l-20.901-6.755c-3.215-1.039-6.74-0.384-9.368,1.744c-6.405,5.187-13.534,9.309-21.187,12.253
			c-3.153,1.212-5.48,3.935-6.188,7.238l-4.601,21.478h-34.752l-4.601-21.478c-0.708-3.304-3.036-6.026-6.188-7.238
			c-7.654-2.944-14.783-7.066-21.187-12.253c-2.627-2.128-6.151-2.785-9.368-1.744l-20.901,6.755L76.72,425.949l16.31-14.732
			c2.504-2.262,3.698-5.634,3.176-8.968c-0.632-4.038-0.953-8.161-0.953-12.253c0-4.092,0.321-8.215,0.953-12.253
			c0.522-3.334-0.672-6.706-3.176-8.968l-16.31-14.732l17.401-30.087l20.901,6.755c3.217,1.039,6.741,0.384,9.368-1.744
			c6.405-5.187,13.534-9.309,21.187-12.253c3.235-1.244,5.595-4.074,6.237-7.48l4.759-25.247h69.447
			c20.031,0,36.666-14.807,39.544-34.049l29.072-17.371c3.021-1.805,4.871-5.064,4.871-8.584v-37.906
			c2.006-0.354,3.874-1.308,5.333-2.768l70.236-70.235c0.014-0.014,0.018-0.028,0.031-0.042c1.786-1.806,2.891-4.288,2.891-7.03v-6
			h124.003c5.523,0,10-4.478,10-10V50.006C511.999,44.484,507.522,40.006,501.999,40.006z M134.003,80.005H20v-20h114.003V80.005z
			 M279.505,218.311l-23.499,14.041l-23.499-14.041V186.24h46.999V218.311z M293.626,166.241h-75.239l-50.236-50.236h175.711
			L293.626,166.241z M357.997,96.005H154.002V68.005h116.17c5.523,0,10-4.478,10-10s-4.477-10-10-10h-116.17V20.006h203.995V96.005z
			 M492,80.005H377.996v-20H492V80.005z" fill="#4db6ac"/>
	</g>
</g>
<g>
	<g>
		<path d="M312.689,48.006h-0.148c-5.523,0-10,4.478-10,10s4.477,10,10,10h0.148c5.523,0,10-4.478,10-10
			S318.212,48.006,312.689,48.006z" fill="#4db6ac"/>
	</g>
</g>
<g>
	<g>
		<path d="M173.74,332.913c-31.476,0-57.085,25.608-57.085,57.085c0,31.477,25.608,57.085,57.085,57.085
			s57.085-25.607,57.085-57.085C230.824,358.52,205.216,332.913,173.74,332.913z M173.74,427.082
			c-20.448,0-37.085-16.637-37.085-37.085s16.637-37.085,37.085-37.085s37.085,16.637,37.085,37.085S194.188,427.082,173.74,427.082
			z" fill="#4db6ac"/>
	</g>
</g>
<g>
	<g>
		<path d="M508.702,313.916l-13.411-12.113c0.19-2.235,0.287-4.481,0.287-6.717s-0.096-4.481-0.287-6.717l13.411-12.114
			c3.501-3.163,4.315-8.343,1.953-12.428l-19.711-34.08c-2.359-4.078-7.245-5.958-11.731-4.509l-17.167,5.548
			c-3.685-2.577-7.575-4.827-11.637-6.729l-3.781-17.651c-0.988-4.611-5.063-7.905-9.778-7.905h-39.366
			c-4.716,0-8.791,3.294-9.778,7.905l-3.781,17.651c-4.063,1.903-7.953,4.152-11.637,6.729l-17.167-5.548
			c-4.486-1.449-9.373,0.431-11.731,4.509l-19.711,34.08c-2.362,4.085-1.548,9.265,1.954,12.428l13.411,12.114
			c-0.19,2.235-0.287,4.48-0.287,6.717s0.096,4.481,0.287,6.717l-13.411,12.113c-3.501,3.163-4.315,8.343-1.954,12.428l19.711,34.08
			c2.359,4.078,7.248,5.957,11.731,4.509l17.167-5.547c3.684,2.576,7.574,4.826,11.637,6.729l3.781,17.651
			c0.988,4.611,5.063,7.905,9.778,7.905h39.366c4.716,0,8.791-3.294,9.778-7.905l3.781-17.651c4.063-1.903,7.954-4.153,11.637-6.729
			l17.167,5.547c4.486,1.448,9.372-0.431,11.731-4.509l19.711-34.08C513.018,322.259,512.204,317.079,508.702,313.916z
			 M474.87,285.965c0.471,3.007,0.709,6.076,0.709,9.122c0,3.046-0.239,6.115-0.709,9.122c-0.522,3.334,0.672,6.706,3.176,8.968
			l11.247,10.158l-11.616,20.085l-14.416-4.658c-3.217-1.039-6.741-0.384-9.368,1.744c-4.766,3.859-10.07,6.927-15.767,9.118
			c-3.153,1.213-5.48,3.936-6.188,7.238l-3.173,14.812H405.57l-3.173-14.812c-0.708-3.303-3.035-6.025-6.188-7.238
			c-5.697-2.191-11.001-5.259-15.767-9.118c-2.627-2.128-6.151-2.785-9.368-1.744l-14.416,4.658l-11.616-20.085l11.247-10.158
			c2.504-2.262,3.699-5.634,3.176-8.968c-0.47-3.005-0.709-6.074-0.709-9.122s0.239-6.117,0.709-9.122
			c0.522-3.333-0.672-6.705-3.176-8.968l-11.247-10.159l11.616-20.083l14.416,4.658c3.219,1.04,6.742,0.384,9.368-1.744
			c4.768-3.86,10.072-6.928,15.766-9.117c3.154-1.213,5.481-3.936,6.189-7.239l3.173-14.812h23.197l3.173,14.812
			c0.708,3.304,3.036,6.026,6.189,7.239c5.694,2.189,10.998,5.257,15.766,9.117c2.626,2.127,6.15,2.783,9.368,1.744l14.416-4.658
			l11.616,20.083l-11.247,10.159C475.542,279.259,474.347,282.632,474.87,285.965z" fill="#4db6ac"/>
	</g>
</g>
<g>
	<g>
		<path d="M417.168,248.686c-25.585,0-46.401,20.815-46.401,46.401c0,25.585,20.815,46.4,46.401,46.4s46.401-20.814,46.401-46.4
			C463.569,269.501,442.754,248.686,417.168,248.686z M417.168,321.488c-14.558,0-26.401-11.844-26.401-26.4
			c0-14.559,11.844-26.401,26.401-26.401s26.401,11.844,26.401,26.401C443.57,309.644,431.726,321.488,417.168,321.488z" fill="#4db6ac"/>
	</g>
</g>
<g>
</g>
<g>
</g>
<g>
</g>
<g>
</g>
<g>
</g>
<g>
</g>
<g>
</g>
<g>
</g>
<g>
</g>
<g>
</g>
<g>
</g>
<g>
</g>
<g>
</g>
<g>
</g>
<g>
</g>
</svg>
